<svg width="50" height="50" viewBox="0 0 50 50" fill="none" xmlns="http://www.w3.org/2000/svg">
<g clip-path="url(#clip0)">
<path d="M42.8713 8.46518C33.6417 8.46518 26.573 0.778186 26.454 0.647342C25.6812 -0.214017 24.3262 -0.21745 23.5476 0.646579C23.477 0.724399 16.3909 8.46518 7.12915 8.46518C6.05035 8.46518 5.17603 9.33951 5.17603 10.4183C5.17603 27.5844 8.63824 42.4362 24.1622 49.8112C24.6924 50.0629 25.3081 50.0629 25.8383 49.8112C41.3973 42.4194 44.8245 27.5165 44.8245 10.4183C44.8245 9.33951 43.9501 8.46518 42.8713 8.46518V8.46518ZM25.0002 45.8694C12.2782 39.3604 9.28903 26.6842 9.0941 12.2795C16.5801 11.5803 22.4093 7.06938 25.0002 4.69664C27.5912 7.06938 33.4208 11.5803 40.9064 12.2795C40.7115 26.6872 37.7207 39.3612 25.0002 45.8694V45.8694ZM22.9945 26.9024L30.9435 18.9533C31.7061 18.1908 32.9428 18.1904 33.7054 18.9533C34.4683 19.7163 34.4683 20.9526 33.7058 21.7155L24.3758 31.0455C23.6132 31.8081 22.3761 31.8077 21.6136 31.0455L16.2951 25.7271C15.5322 24.9641 15.5322 23.7274 16.2951 22.9648C17.0577 22.2019 18.2944 22.2019 19.0573 22.9648L22.9945 26.9024Z" fill="white"/>
</g>
<defs>
<clipPath id="clip0">
<rect width="50" height="50" fill="white"/>
</clipPath>
</defs>
</svg>
