<svg width="50" height="50" viewBox="0 0 50 50" fill="none" xmlns="http://www.w3.org/2000/svg">
<path d="M32.4878 50.0001C31.3486 50.0001 30.3116 49.2848 29.9072 48.2216L20.8331 24.4044C20.7225 24.1588 20.6484 23.8001 20.6484 23.4152C20.6484 21.8914 21.8876 20.6499 23.4117 20.6499C23.805 20.6499 24.1704 20.7259 24.5008 20.876L48.2182 29.9087C49.2834 30.3131 49.9987 31.35 49.9987 32.4913C49.9987 33.6914 49.2288 34.7478 48.0876 35.1196L38.3181 38.3196L35.1158 48.0958C34.742 49.2347 33.6856 50.0001 32.4878 50.0001V50.0001ZM24.2747 24.2782L32.4552 45.7457L35.4768 36.5216C35.6376 36.0284 36.0269 35.6415 36.5181 35.4803L45.7419 32.4586L24.2747 24.2782ZM47.0638 32.961H47.0853H47.0638ZM23.2442 23.8849C23.2505 23.8893 23.2617 23.8937 23.2724 23.8956L23.2442 23.8849ZM23.8508 23.1632L23.8834 23.2456C23.8723 23.2198 23.8639 23.1915 23.8508 23.1632Z" fill="white"/>
<path d="M21.739 43.4784C9.75236 43.4784 0 33.726 0 21.739C0 9.75236 9.75236 0 21.739 0C33.726 0 43.4784 9.75236 43.4784 21.739C43.4784 22.0566 43.476 22.3719 43.4521 22.6911C43.3825 23.5892 42.5871 24.2694 41.6999 24.1914C40.8023 24.1218 40.1303 23.3392 40.2 22.4412C40.2195 22.2067 40.2175 21.9719 40.2175 21.739C40.2175 11.55 31.9284 3.26087 21.739 3.26087C11.55 3.26087 3.26087 11.55 3.26087 21.739C3.26087 31.9284 11.55 40.2175 21.739 40.2175C21.9806 40.2151 22.2306 40.2195 22.4607 40.202C23.3499 40.1327 24.1436 40.8043 24.2129 41.7023C24.2826 42.5999 23.6111 43.3825 22.713 43.4521C22.3958 43.476 22.0566 43.4784 21.739 43.4784V43.4784Z" fill="white"/>
</svg>
