<svg width="50" height="50" viewBox="0 0 50 50" fill="none" xmlns="http://www.w3.org/2000/svg">
<g clip-path="url(#clip0)">
<path d="M37.1063 30.7905C32.8718 30.3939 28.9721 28.2933 26.3066 25.0138C29.0137 21.7022 32.9167 19.6091 37.1063 19.2107V23.3427L50 14.747L37.1063 6.15118V10.3962C30.9986 10.7597 25.2588 13.3869 20.9797 17.77C19.4327 16.1906 17.6815 14.8195 15.7697 13.7028C12.0178 11.5112 7.74653 10.3528 3.41769 10.3528H0V19.1411H3.41769C8.2087 19.1411 12.7124 21.331 15.6828 24.9858C12.6625 28.6811 8.15275 30.8589 3.41769 30.8589H0V39.6473H3.41769C10.0671 39.6473 16.3891 36.9617 21.0087 32.2298C22.5559 33.8093 24.3072 35.1804 26.219 36.2972C29.5468 38.2411 33.2836 39.3722 37.1062 39.6031V43.8489L49.9999 35.2531L37.1063 26.6573V30.7905ZM38.5711 13.2822H40.0358V11.625L44.7188 14.747L40.0358 17.869V16.2117H38.5711C33.25 16.2117 28.1731 18.5255 24.6146 22.4877C24.0954 21.6178 23.5255 20.7827 22.9097 19.9862C26.9936 15.7114 32.6349 13.2822 38.5711 13.2822V13.2822ZM3.41769 36.7178H2.92945V33.7884H3.41769C8.73874 33.7884 13.8157 31.4746 17.3742 27.5123C17.8934 28.3823 18.4632 29.2174 19.079 30.0139C14.9952 34.2886 9.35382 36.7178 3.41769 36.7178ZM40.0358 33.7884V32.1311L44.7188 35.2531L40.0358 38.3751V36.7178H38.5711C30.819 36.7178 23.5793 32.4761 19.6772 25.648C16.3518 19.8275 10.1215 16.2117 3.41769 16.2117H2.92945V13.2822H3.41769C11.1698 13.2822 18.4094 17.524 22.3115 24.352C25.637 30.1726 31.8671 33.7884 38.5711 33.7884H40.0358Z" fill="white"/>
</g>
<defs>
<clipPath id="clip0">
<rect width="50" height="50" fill="white"/>
</clipPath>
</defs>
</svg>
