<svg width="50" height="50" viewBox="0 0 50 50" fill="none" xmlns="http://www.w3.org/2000/svg">
<path d="M49.6461 24.0095L35.5839 6.82536C35.287 6.45974 34.8432 6.25037 34.3745 6.25037H21.8747C21.2716 6.25037 20.7216 6.59724 20.4622 7.1441C20.206 7.68784 20.281 8.33471 20.6653 8.80033L33.9183 25.0001L20.6685 41.1998C20.2841 41.6654 20.2091 42.3123 20.4653 42.8592C20.7216 43.4029 21.2716 43.7498 21.8747 43.7498H34.3745C34.8432 43.7498 35.287 43.5404 35.5839 43.1748L49.6461 25.9876C50.118 25.4126 50.118 24.5845 49.6461 24.0095ZM33.6339 40.6248H25.1715L37.1463 25.9876C37.6182 25.4126 37.6182 24.5845 37.1463 24.0095L25.1715 9.37532H33.6339L46.4181 25.0001L33.6339 40.6248Z" fill="white"/>
<path d="M29.3339 24.0095L15.2716 6.82223C14.9747 6.45974 14.531 6.25037 14.0622 6.25037H1.56244C0.959324 6.25037 0.409333 6.59724 0.149962 7.1441C-0.106284 7.68784 -0.0312854 8.33471 0.353084 8.80033L13.606 25.0001L0.356209 41.1998C-0.0312854 41.6654 -0.106284 42.3123 0.149962 42.856C0.409333 43.4029 0.959324 43.7498 1.56244 43.7498H14.0622C14.531 43.7498 14.9747 43.5404 15.2716 43.1748L29.3339 25.9876C29.8057 25.4126 29.8057 24.5845 29.3339 24.0095ZM13.3216 40.6248H4.85926L16.8341 25.9876C17.3059 25.4126 17.3059 24.5845 16.8341 24.0095L4.85926 9.37532H13.3216L26.1058 25.0001L13.3216 40.6248Z" fill="white"/>
</svg>
