<svg width="50" height="48" viewBox="0 0 50 48" fill="none" xmlns="http://www.w3.org/2000/svg">
<path d="M11.1913 47.989C10.6435 47.989 10.0995 47.8181 9.63525 47.4824C8.77044 46.8556 8.36645 45.7783 8.60182 44.7388L11.8185 30.5695L0.909671 21.0027C0.107801 20.3027 -0.198527 19.1942 0.13069 18.1798C0.459906 17.1674 1.35562 16.4506 2.41613 16.3525L16.8498 15.0421L22.5563 1.68768C22.9771 0.706513 23.9354 0.072876 25.0001 0.072876C26.0648 0.072876 27.0231 0.706514 27.4439 1.68539L33.1504 15.0421L47.5818 16.3525C48.6446 16.4483 49.5403 17.1674 49.8695 18.1798C50.1987 19.1922 49.8943 20.3027 49.0924 21.0027L38.1837 30.5676L41.4003 44.7365C41.636 45.7783 41.2317 46.8556 40.3672 47.4805C39.5047 48.1053 38.3546 48.1534 37.4463 47.6075L25.0001 40.1698L12.554 47.6117C12.1332 47.8616 11.6643 47.989 11.1913 47.989V47.989ZM25.0001 36.9658C25.4731 36.9658 25.9416 37.0928 26.3627 37.3427L38.1089 44.368L35.0731 30.9945C34.8564 30.0427 35.1795 29.0489 35.915 28.405L46.2153 19.3715L32.5877 18.134C31.6066 18.0444 30.7627 17.4275 30.3793 16.5234L25.0001 3.92086L19.6144 16.5253C19.2352 17.4233 18.3914 18.0402 17.4125 18.1298L3.78297 19.3673L14.0829 28.4008C14.8207 29.0466 15.1434 30.0385 14.9248 30.9926L11.8913 44.3657L23.6375 37.3427C24.0582 37.0928 24.5271 36.9658 25.0001 36.9658V36.9658ZM16.7395 15.3004C16.7395 15.3004 16.7395 15.3027 16.7373 15.3046L16.7395 15.3004ZM33.2565 15.2943L33.2588 15.2985C33.2588 15.2962 33.2588 15.2962 33.2565 15.2943Z" fill="white"/>
</svg>
