<svg width="50" height="50" viewBox="0 0 50 50" fill="none" xmlns="http://www.w3.org/2000/svg">
<path d="M33.8531 32.6893C32.7656 32.3269 31.8172 32.011 31.1523 31.7894V29.5311C34.0504 27.8694 36.2198 25.0759 37.0537 21.7579H39.1014C40.332 21.7579 41.4879 21.2788 42.3561 20.4094C43.2255 19.5404 43.7042 18.3846 43.7042 17.1547V14.0167C43.7042 12.7872 43.2255 11.6314 42.3569 10.7632C41.4879 9.89304 40.3316 9.41391 39.1014 9.41391H37.4283V9.30824C37.4283 4.17557 33.2527 0 28.12 0H21.8407C16.7084 0 12.5324 4.17557 12.5324 9.30824V9.41391H10.8593C9.62906 9.41391 8.47282 9.89304 7.60498 10.7624C6.73523 11.6318 6.25648 12.7872 6.25648 14.0171V23.431C6.25648 27.6993 9.729 31.1718 13.9977 31.1718C14.8064 31.1718 15.4625 30.5161 15.4625 29.707C15.4625 28.8982 14.8064 28.2421 13.9977 28.2421C11.3445 28.2421 9.18617 26.0841 9.18617 23.431V21.4443C9.7126 21.6496 10.2772 21.7579 10.8593 21.7579H12.9025C13.4418 23.9227 14.5596 25.9083 16.1781 27.5265C16.9735 28.3218 17.8581 28.9959 18.8087 29.5403V31.7894C18.1438 32.011 17.1951 32.3273 16.1076 32.6897C9.27696 34.9667 4.6875 41.3342 4.6875 48.5352C4.6875 49.3443 5.34325 50 6.15234 50H43.8087C44.6175 50 45.2736 49.3435 45.2736 48.5344C45.2736 41.3342 40.6841 34.9667 33.8531 32.6893V32.6893ZM40.2847 12.8342C40.6006 13.15 40.7745 13.57 40.7745 14.0167V17.1547C40.7745 17.6018 40.6006 18.0218 40.284 18.3384C39.9685 18.6543 39.5485 18.8282 39.1014 18.8282H37.4283V12.3436H39.1014C39.5485 12.3436 39.9685 12.5175 40.2847 12.8342ZM21.841 2.92969H28.12C31.6372 2.92969 34.4986 5.79109 34.4986 9.30824V12.5519H28.3108C25.1785 12.5519 22.4602 10.4317 21.6969 7.39479C21.5382 6.74248 20.9526 6.27594 20.2736 6.27594C20.0459 6.27594 19.8219 6.32896 19.6182 6.43044L15.5155 8.48198C15.9218 5.35393 18.6035 2.92969 21.841 2.92969ZM12.5324 18.8282H10.8593C10.4122 18.8282 9.99222 18.6543 9.67636 18.3376C9.36012 18.0218 9.18617 17.6018 9.18617 17.1551V14.0171C9.18617 13.5704 9.36012 13.15 9.67712 12.8334C9.99222 12.5179 10.4122 12.344 10.8593 12.344H12.5324V18.8282ZM15.4621 18.7256V11.7844L19.4454 9.79271C21.0075 13.2141 24.4381 15.4816 28.3108 15.4816H34.4986V18.7241C34.4986 23.9723 30.2288 28.2421 24.979 28.2421C22.4373 28.2421 20.0474 27.2522 18.2495 25.4547C16.452 23.6572 15.4621 21.2677 15.4621 18.7256V18.7256ZM24.9805 31.1718C26.1017 31.1718 27.1885 31.0219 28.2227 30.7426V32.814V32.8194V32.8449C28.2227 34.6329 26.7681 36.087 24.9805 36.087C23.1926 36.087 21.7384 34.6329 21.7384 32.8449V32.8194C21.7384 32.8175 21.7384 32.8159 21.7384 32.814V30.7472C22.7825 31.0268 23.8701 31.1718 24.9805 31.1718V31.1718ZM7.69424 47.0703C8.25882 41.748 11.8694 37.1906 17.0338 35.4687C17.8196 35.207 18.5326 34.9693 19.1189 34.774C19.931 37.2349 22.2507 39.0167 24.9805 39.0167C27.71 39.0167 30.0301 37.2349 30.8418 34.774C31.4281 34.9693 32.1415 35.207 32.9269 35.4687C38.0913 37.1902 41.7019 41.7477 42.2665 47.0703H7.69424Z" fill="white"/>
</svg>
