<svg width="223" height="106" viewBox="0 0 223 106" fill="none" xmlns="http://www.w3.org/2000/svg">
<path d="M34.4481 79.8437V60.5823H44.6454C49.6307 60.5823 53.6961 59.1477 56.8441 56.277C59.9907 53.4064 61.5641 49.7317 61.5641 45.249C61.5641 40.7677 60.0027 37.105 56.8814 34.2597C53.7587 31.4143 49.6801 29.9917 44.6454 29.9917H26.4414V79.8437H34.4481ZM34.4481 37.0917H44.4934C47.2627 37.0917 49.4281 37.8357 50.9894 39.3197C52.5507 40.8063 53.3321 42.8077 53.3321 45.325C53.3321 47.8437 52.5507 49.8317 50.9894 51.2917C49.4281 52.753 47.2627 53.4823 44.4934 53.4823H34.4481V37.0917ZM105.563 57.4103C103.925 55.1943 101.647 53.609 98.7267 52.6517C101.495 50.285 102.881 47.1637 102.881 43.285C102.881 39.409 101.508 36.2237 98.7641 33.7304C96.0187 31.2384 92.4067 29.9917 87.9254 29.9917H70.4774V79.8437H91.8534C96.6867 79.8437 100.589 78.4837 103.561 75.765C106.531 73.045 108.017 69.5717 108.017 65.341C108.017 62.2704 107.199 59.6263 105.563 57.4103ZM92.8734 38.7917C94.2067 39.9743 94.8747 41.5983 94.8747 43.6637C94.8747 45.7783 94.1947 47.4397 92.8347 48.6477C91.4747 49.857 89.5867 50.461 87.1694 50.461H78.3321V37.0157H87.1694C89.6361 37.0157 91.5374 37.609 92.8734 38.7917V38.7917ZM97.6307 70.7424C96.0947 72.1277 93.9414 72.8197 91.1734 72.8197H78.3321V57.3343H91.1734C93.8921 57.3343 96.0321 58.0277 97.5934 59.4117C99.1534 60.797 99.9347 62.697 99.9347 65.1144C99.9347 67.4824 99.1667 69.357 97.6307 70.7424V70.7424ZM134.983 79.8437V37.1677H151.827V29.9917H110.208V37.1677H126.976V79.8437H134.983ZM162.779 73.197C168.015 78.2837 174.208 80.7744 181.36 80.6744C185.941 80.6744 190.108 79.6544 193.86 77.6157C197.611 75.5757 200.569 72.769 202.736 69.193L196.693 64.737C193.016 70.477 187.931 73.3477 181.435 73.3477C176.299 73.3477 172.019 71.5984 168.595 68.0984C165.169 64.5984 163.459 60.205 163.459 54.917C163.459 49.6304 165.169 45.237 168.595 41.737C172.019 38.2383 176.299 36.4877 181.435 36.4877C187.931 36.4877 193.016 39.357 196.693 45.0983L202.736 40.6424C200.569 37.117 197.599 34.3224 193.823 32.257C190.045 30.193 185.892 29.161 181.36 29.161C174.208 29.0597 168.015 31.553 162.779 36.6384C157.54 41.725 154.999 47.817 155.149 54.917C154.999 62.0184 157.54 68.1117 162.779 73.197" fill="#0B0B0B"/>
<path d="M31.7639 22.6094V12.8467H41.4799V22.6094H46.3146V4.20377e-05H41.4799V8.65738H31.7639V4.20377e-05H26.8826V22.6094H31.7639ZM58.2879 22.6094V4.19071H67.7279V22.6094H72.6079V4.20377e-05H53.4066V22.6094H58.2879ZM84.5812 4.20377e-05H79.6999V22.6094H84.5812V4.20377e-05ZM99.5466 4.20377e-05H93.8359L84.7652 10.4987L94.5266 22.6094H100.421L90.4746 10.3147L99.5466 4.20377e-05Z" fill="#0B0B0B"/>
<path d="M119.581 9.97603H207.743C212.839 15.0707 215.695 17.928 220.791 23.0227V86.6814C215.695 91.776 212.839 94.6334 207.743 99.728H20.9621C15.8661 94.6334 13.0101 91.776 7.91406 86.6814V18.2707" stroke="#0B0B0B" stroke-width="2.69333" stroke-miterlimit="10"/>
<path d="M13.8267 11.762C13.8267 15.0273 11.18 17.6753 7.912 17.6753C4.64667 17.6753 2 15.0273 2 11.762C2 8.49663 4.64667 5.84863 7.912 5.84863C11.18 5.84863 13.8267 8.49663 13.8267 11.762Z" stroke="#0B0B0B" stroke-width="2.69333" stroke-miterlimit="10"/>
<path d="M120.263 9.97583C120.263 13.2412 117.616 15.8892 114.35 15.8892C111.084 15.8892 108.438 13.2412 108.438 9.97583C108.438 6.71049 111.084 4.06249 114.35 4.06249C117.616 4.06249 120.263 6.71049 120.263 9.97583Z" stroke="#0B0B0B" stroke-width="2.69333" stroke-miterlimit="10"/>
<path d="M211.37 98.2165C211.37 101.483 208.723 104.13 205.456 104.13C202.19 104.13 199.543 101.483 199.543 98.2165C199.543 94.9512 202.19 92.3032 205.456 92.3032C208.723 92.3032 211.37 94.9512 211.37 98.2165Z" fill="white"/>
<path d="M211.37 98.2165C211.37 101.483 208.723 104.13 205.456 104.13C202.19 104.13 199.543 101.483 199.543 98.2165C199.543 94.9512 202.19 92.3032 205.456 92.3032C208.723 92.3032 211.37 94.9512 211.37 98.2165Z" stroke="#0B0B0B" stroke-width="2.69333" stroke-miterlimit="10"/>
</svg>
