<svg width="151" height="72" viewBox="0 0 151 72" fill="none" xmlns="http://www.w3.org/2000/svg">
<path d="M23.8011 53.645V40.7038H30.6525C34.002 40.7038 36.7334 39.7399 38.8485 37.8111C40.9627 35.8824 42.0197 33.4135 42.0197 30.4017C42.0197 27.3908 40.9707 24.9299 38.8736 23.0182C36.7755 21.1065 34.0352 20.1506 30.6525 20.1506H18.4216V53.645H23.8011ZM23.8011 24.9209H30.5504C32.411 24.9209 33.8658 25.4208 34.9149 26.4179C35.9639 27.4167 36.4889 28.7614 36.4889 30.4527C36.4889 32.145 35.9639 33.4807 34.9149 34.4616C33.8658 35.4434 32.411 35.9335 30.5504 35.9335H23.8011V24.9209ZM71.5814 38.5726C70.4814 37.0837 68.9504 36.0186 66.9885 35.3753C68.8482 33.7852 69.7799 31.6881 69.7799 29.0821C69.7799 26.4779 68.8572 24.3377 67.0136 22.6625C65.169 20.9882 62.7422 20.1506 59.7313 20.1506H48.0084V53.645H62.3705C65.6179 53.645 68.24 52.7313 70.2368 50.9047C72.2318 49.0772 73.2307 46.7435 73.2307 43.901C73.2307 41.8379 72.6806 40.0615 71.5814 38.5726ZM63.0558 26.0631C63.9516 26.8577 64.4004 27.9489 64.4004 29.3365C64.4004 30.7573 63.9435 31.8735 63.0298 32.6851C62.116 33.4977 60.8475 33.9035 59.2234 33.9035H53.2858V24.8699H59.2234C60.8807 24.8699 62.1581 25.2685 63.0558 26.0631V26.0631ZM66.2521 47.53C65.2201 48.4608 63.7733 48.9258 61.9136 48.9258H53.2858V38.5215H61.9136C63.7402 38.5215 65.178 38.9874 66.227 39.9172C67.2752 40.848 67.8001 42.1246 67.8001 43.7487C67.8001 45.3397 67.2841 46.5993 66.2521 47.53V47.53ZM91.3481 53.645V24.972H102.665V20.1506H74.7025V24.972H85.9686V53.645H91.3481ZM110.024 49.1793C113.542 52.5969 117.703 54.2703 122.508 54.2031C125.586 54.2031 128.386 53.5178 130.906 52.1481C133.426 50.7775 135.414 48.8917 136.87 46.4891L132.81 43.4952C130.339 47.3518 126.923 49.2805 122.558 49.2805C119.107 49.2805 116.232 48.1052 113.931 45.7536C111.63 43.402 110.48 40.4503 110.48 36.8974C110.48 33.3454 111.63 30.3936 113.931 28.042C116.232 25.6914 119.107 24.5151 122.558 24.5151C126.923 24.5151 130.339 26.443 132.81 30.3004L136.87 27.3065C135.414 24.938 133.418 23.0603 130.881 21.6726C128.343 20.2859 125.553 19.5925 122.508 19.5925C117.703 19.5244 113.542 21.1996 110.024 24.6164C106.504 28.034 104.796 32.127 104.898 36.8974C104.796 41.6686 106.504 45.7626 110.024 49.1793" fill="#42AAFF"/>
<path d="M21.9977 15.1909V8.63161H28.5256V15.1909H31.7739V0.000224313H28.5256V5.81689H21.9977V0.000224313H18.718V15.1909H21.9977ZM39.8185 15.1909V2.81584H46.1611V15.1909H49.4398V0.000224313H36.5389V15.1909H39.8185ZM57.4844 0.000224313H54.2048V15.1909H57.4844V0.000224313ZM67.5393 0.000224313H63.7024L57.6081 7.05404L64.1665 15.1909H68.127L61.444 6.93041L67.5393 0.000224313Z" fill="white"/>
<path d="M80.9989 6.70257H140.233C143.657 10.1256 145.576 12.0453 149 15.4683V58.2391C145.576 61.6621 143.657 63.5819 140.233 67.0049H14.7393C11.3154 63.5819 9.39654 61.6621 5.97266 58.2391V12.2756" stroke="white" stroke-width="2.69333" stroke-miterlimit="10"/>
<path d="M9.94607 7.90246C9.94607 10.0964 8.16783 11.8755 5.97214 11.8755C3.77823 11.8755 2 10.0964 2 7.90246C2 5.70855 3.77823 3.92942 5.97214 3.92942C8.16783 3.92942 9.94607 5.70855 9.94607 7.90246Z" stroke="white" stroke-width="2.69333" stroke-miterlimit="10"/>
<path d="M81.4588 6.70275C81.4588 8.89665 79.6806 10.6758 77.4858 10.6758C75.2919 10.6758 73.5137 8.89665 73.5137 6.70275C73.5137 4.50885 75.2919 2.72972 77.4858 2.72972C79.6806 2.72972 81.4588 4.50885 81.4588 6.70275Z" stroke="white" stroke-width="2.69333" stroke-miterlimit="10"/>
<path d="M142.671 65.9894C142.671 68.1842 140.892 69.9624 138.698 69.9624C136.503 69.9624 134.725 68.1842 134.725 65.9894C134.725 63.7955 136.503 62.0163 138.698 62.0163C140.892 62.0163 142.671 63.7955 142.671 65.9894Z" fill="white"/>
<path d="M142.671 65.9894C142.671 68.1842 140.892 69.9624 138.698 69.9624C136.503 69.9624 134.725 68.1842 134.725 65.9894C134.725 63.7955 136.503 62.0163 138.698 62.0163C140.892 62.0163 142.671 63.7955 142.671 65.9894Z" stroke="white" stroke-width="2.69333" stroke-miterlimit="10"/>
</svg>
