<svg width="100" height="48" viewBox="0 0 100 48" fill="none" xmlns="http://www.w3.org/2000/svg">
<path d="M15.585 35.703V27.0755H20.1526C22.3856 27.0755 24.2065 26.4329 25.6166 25.1471C27.026 23.8613 27.7307 22.2153 27.7307 20.2075C27.7307 18.2002 27.0314 16.5596 25.6333 15.2852C24.2346 14.0107 22.4077 13.3734 20.1526 13.3734H11.9987V35.703H15.585ZM15.585 16.5537H20.0845C21.3249 16.5537 22.2948 16.8869 22.9941 17.5516C23.6935 18.2175 24.0435 19.114 24.0435 20.2415C24.0435 21.3697 23.6935 22.2601 22.9941 22.9141C22.2948 23.5687 21.3249 23.8953 20.0845 23.8953H15.585V16.5537ZM47.4385 25.6548C46.7051 24.6622 45.6845 23.9521 44.3766 23.5233C45.6164 22.4632 46.2375 21.0651 46.2375 19.3278C46.2375 17.5916 45.6224 16.1649 44.3933 15.0481C43.1636 13.9318 41.5457 13.3734 39.5385 13.3734H31.7232V35.703H41.2979C43.4628 35.703 45.2109 35.0939 46.5421 33.8761C47.8721 32.6578 48.538 31.102 48.538 29.207C48.538 27.8316 48.1713 26.6473 47.4385 25.6548ZM41.7547 17.3151C42.352 17.8449 42.6512 18.5723 42.6512 19.4974C42.6512 20.4446 42.3466 21.1887 41.7374 21.7298C41.1283 22.2715 40.2826 22.542 39.1998 22.542H35.2414V16.5196H39.1998C40.3047 16.5196 41.1563 16.7854 41.7547 17.3151V17.3151ZM43.8856 31.6264C43.1976 32.2469 42.2331 32.5569 40.9933 32.5569H35.2414V25.6207H40.9933C42.211 25.6207 43.1696 25.9313 43.8689 26.5512C44.5677 27.1717 44.9176 28.0227 44.9176 29.1055C44.9176 30.1662 44.5736 31.0059 43.8856 31.6264V31.6264ZM60.6163 35.703V16.5877H68.161V13.3734H49.5193V16.5877H57.0299V35.703H60.6163ZM73.0666 32.7259C75.4119 35.0043 78.186 36.1199 81.3895 36.0751C83.4416 36.0751 85.3079 35.6182 86.9885 34.7051C88.6685 33.7913 89.9937 32.5342 90.9642 30.9324L88.2576 28.9365C86.6105 31.5075 84.3326 32.7934 81.423 32.7934C79.1225 32.7934 77.2054 32.0098 75.6717 30.4421C74.1374 28.8744 73.3712 26.9065 73.3712 24.5379C73.3712 22.17 74.1374 20.2021 75.6717 18.6344C77.2054 17.0673 79.1225 16.2831 81.423 16.2831C84.3326 16.2831 86.6105 17.5683 88.2576 20.14L90.9642 18.1441C89.9937 16.565 88.6631 15.3132 86.9718 14.3881C85.2798 13.4636 83.4195 13.0014 81.3895 13.0014C78.186 12.956 75.4119 14.0728 73.0666 16.3506C70.7201 18.629 69.5818 21.3577 69.6493 24.5379C69.5818 27.7188 70.7201 30.4481 73.0666 32.7259" fill="#42AAFF"/>
<path d="M14.3316 10.1272V5.75432H18.6836V10.1272H20.8491V6.74877e-05H18.6836V3.87784H14.3316V6.74877e-05H12.1451V10.1272H14.3316ZM26.2122 10.1272V1.87714H30.4405V10.1272H32.6263V6.74877e-05H24.0257V10.1272H26.2122ZM37.9894 6.74877e-05H35.803V10.1272H37.9894V6.74877e-05ZM44.6927 6.74877e-05H42.1347L38.0718 4.70261L42.4441 10.1272H45.0844L40.6291 4.62019L44.6927 6.74877e-05Z" fill="#231F20"/>
<path d="M53.666 4.46838H93.1556C95.4382 6.75037 96.7174 8.03022 99 10.3122V38.8261C96.7174 41.1081 95.4382 42.3879 93.1556 44.6699H9.49287C7.21028 42.3879 5.93103 41.1081 3.64844 38.8261V8.18371" stroke="#231F20" stroke-width="2" stroke-miterlimit="10"/>
<path d="M6.29738 5.2683C6.29738 6.73091 5.11189 7.91699 3.64809 7.91699C2.18549 7.91699 1 6.73091 1 5.2683C1 3.8057 2.18549 2.61961 3.64809 2.61961C5.11189 2.61961 6.29738 3.8057 6.29738 5.2683Z" stroke="#231F20" stroke-width="2" stroke-miterlimit="10"/>
<path d="M53.9726 4.4685C53.9726 5.9311 52.7871 7.11719 51.3239 7.11719C49.8613 7.11719 48.6758 5.9311 48.6758 4.4685C48.6758 3.0059 49.8613 1.81981 51.3239 1.81981C52.7871 1.81981 53.9726 3.0059 53.9726 4.4685Z" stroke="#231F20" stroke-width="2" stroke-miterlimit="10"/>
<path d="M94.7804 43.9929C94.7804 45.4561 93.5949 46.6416 92.1317 46.6416C90.6685 46.6416 89.483 45.4561 89.483 43.9929C89.483 42.5303 90.6685 41.3442 92.1317 41.3442C93.5949 41.3442 94.7804 42.5303 94.7804 43.9929Z" fill="white"/>
<path d="M94.7804 43.9929C94.7804 45.4561 93.5949 46.6416 92.1317 46.6416C90.6685 46.6416 89.483 45.4561 89.483 43.9929C89.483 42.5303 90.6685 41.3442 92.1317 41.3442C93.5949 41.3442 94.7804 42.5303 94.7804 43.9929Z" stroke="#231F20" stroke-width="2" stroke-miterlimit="10"/>
</svg>
