<svg width="254" height="290" viewBox="0 0 254 290" fill="none" xmlns="http://www.w3.org/2000/svg">
<path d="M9.19922 80.0988L9.19922 211.344L126.256 279.449L246.15 211.344L246.15 76.5516L126.256 9.86496L9.19922 80.0988Z" stroke="black"/>
<path d="M251.09 216.245L129.863 288.592C128.085 289.653 125.914 289.653 124.137 288.592L2.90945 216.245C1.10836 215.172 0 213.171 0 211.012L0 78.3759C0 76.2174 1.10836 74.216 2.90945 73.1427L124.137 0.795762C125.026 0.26503 126.007 -4.77613e-05 127 -4.77613e-05C127.993 -4.77613e-05 128.974 0.26503 129.863 0.795762L251.091 73.1427C252.892 74.216 254 76.2174 254 78.3759L254 211.012C253.999 213.171 252.891 215.172 251.09 216.245ZM242.454 81.8729L126.999 12.9749L11.5453 81.8729L11.5453 207.516L126.999 276.414L242.454 207.515L242.454 81.8729V81.8729Z" fill="white"/>
<path d="M113.5 143L89.5 120L67.5 143L115 191.5L183.5 122.5L160.5 99L113.5 143Z" stroke="white" stroke-width="9"/>
</svg>
