<svg width="551" height="489" viewBox="0 0 551 489" fill="none" xmlns="http://www.w3.org/2000/svg">
<path d="M398.046 176.965L347.056 91.5259C346.309 90.2729 346.309 88.7431 347.056 87.4901L398.046 2.05055C398.802 0.781161 400.213 0 401.734 0L495.215 0C496.736 0 498.146 0.781161 498.903 2.05055L549.892 87.4901C550.266 88.1168 550.453 88.8083 550.453 89.5082C550.453 90.2081 550.266 90.8996 549.892 91.5263L498.903 176.966C498.146 178.235 496.736 179.016 495.215 179.016L401.734 179.016C400.213 179.016 398.802 178.235 398.046 176.965ZM492.75 170.879L541.308 89.5078L492.75 8.13697L404.198 8.13697L355.64 89.5078L404.199 170.879L492.75 170.879V170.879Z" fill="white"/>
<path d="M436.949 96.8438C436.316 97.6016 435.422 98.1914 434.266 98.6133C433.109 99.0273 431.828 99.2344 430.422 99.2344C428.945 99.2344 427.648 98.9141 426.531 98.2734C425.422 97.625 424.562 96.6875 423.953 95.4609C423.352 94.2344 423.043 92.793 423.027 91.1367V89.9766C423.027 88.2734 423.312 86.8008 423.883 85.5586C424.461 84.3086 425.289 83.3555 426.367 82.6992C427.453 82.0352 428.723 81.7031 430.176 81.7031C432.199 81.7031 433.781 82.1875 434.922 83.1562C436.062 84.1172 436.738 85.5195 436.949 87.3633H433.527C433.371 86.3867 433.023 85.6719 432.484 85.2188C431.953 84.7656 431.219 84.5391 430.281 84.5391C429.086 84.5391 428.176 84.9883 427.551 85.8867C426.926 86.7852 426.609 88.1211 426.602 89.8945V90.9844C426.602 92.7734 426.941 94.125 427.621 95.0391C428.301 95.9531 429.297 96.4102 430.609 96.4102C431.93 96.4102 432.871 96.1289 433.434 95.5664V92.625H430.234V90.0352H436.949V96.8438ZM448.656 94.5234C448.656 93.8594 448.422 93.3516 447.953 93C447.484 92.6406 446.641 92.2656 445.422 91.875C444.203 91.4766 443.238 91.0859 442.527 90.7031C440.59 89.6562 439.621 88.2461 439.621 86.4727C439.621 85.5508 439.879 84.7305 440.395 84.0117C440.918 83.2852 441.664 82.7188 442.633 82.3125C443.609 81.9062 444.703 81.7031 445.914 81.7031C447.133 81.7031 448.219 81.9258 449.172 82.3711C450.125 82.8086 450.863 83.4297 451.387 84.2344C451.918 85.0391 452.184 85.9531 452.184 86.9766H448.668C448.668 86.1953 448.422 85.5898 447.93 85.1602C447.438 84.7227 446.746 84.5039 445.855 84.5039C444.996 84.5039 444.328 84.6875 443.852 85.0547C443.375 85.4141 443.137 85.8906 443.137 86.4844C443.137 87.0391 443.414 87.5039 443.969 87.8789C444.531 88.2539 445.355 88.6055 446.441 88.9336C448.441 89.5352 449.898 90.2812 450.812 91.1719C451.727 92.0625 452.184 93.1719 452.184 94.5C452.184 95.9766 451.625 97.1367 450.508 97.9805C449.391 98.8164 447.887 99.2344 445.996 99.2344C444.684 99.2344 443.488 98.9961 442.41 98.5195C441.332 98.0352 440.508 97.375 439.938 96.5391C439.375 95.7031 439.094 94.7344 439.094 93.6328H442.621C442.621 95.5156 443.746 96.457 445.996 96.457C446.832 96.457 447.484 96.2891 447.953 95.9531C448.422 95.6094 448.656 95.1328 448.656 94.5234ZM459.168 81.9375L463.551 94.3125L467.91 81.9375H472.527V99H469V94.3359L469.352 86.2852L464.746 99H462.332L457.738 86.2969L458.09 94.3359V99H454.574V81.9375H459.168Z" fill="white"/>
<path d="M225.168 282.212L174.179 196.772C173.431 195.519 173.431 193.989 174.179 192.736L225.168 107.297C225.924 106.027 227.335 105.246 228.856 105.246L322.337 105.246C323.858 105.246 325.269 106.027 326.025 107.297L377.014 192.736C377.389 193.363 377.575 194.054 377.575 194.754C377.575 195.454 377.389 196.146 377.014 196.772L326.025 282.212C325.269 283.481 323.858 284.262 322.337 284.262H228.856C227.335 284.262 225.924 283.481 225.168 282.212ZM319.872 276.125L368.431 194.754L319.872 113.383L231.321 113.383L182.762 194.754L231.321 276.125H319.872V276.125Z" fill="white"/>
<path d="M252.891 204H249.375L242.531 192.773V204H239.016V186.938H242.531L249.387 198.188V186.938H252.891V204ZM255.961 204V186.938H261.938C264.008 186.938 265.578 187.336 266.648 188.133C267.719 188.922 268.254 190.082 268.254 191.613C268.254 192.449 268.039 193.188 267.609 193.828C267.18 194.461 266.582 194.926 265.816 195.223C266.691 195.441 267.379 195.883 267.879 196.547C268.387 197.211 268.641 198.023 268.641 198.984C268.641 200.625 268.117 201.867 267.07 202.711C266.023 203.555 264.531 203.984 262.594 204H255.961ZM259.477 196.57V201.176H262.488C263.316 201.176 263.961 200.98 264.422 200.59C264.891 200.191 265.125 199.645 265.125 198.949C265.125 197.387 264.316 196.594 262.699 196.57H259.477ZM259.477 194.086H262.078C263.852 194.055 264.738 193.348 264.738 191.965C264.738 191.191 264.512 190.637 264.059 190.301C263.613 189.957 262.906 189.785 261.938 189.785H259.477V194.086ZM277.652 198.059H271.055V195.328H277.652V198.059ZM284.332 204H280.816V186.938H284.332V204ZM286.852 197.543C286.852 196.285 287.094 195.164 287.578 194.18C288.062 193.195 288.758 192.434 289.664 191.895C290.578 191.355 291.637 191.086 292.84 191.086C294.551 191.086 295.945 191.609 297.023 192.656C298.109 193.703 298.715 195.125 298.84 196.922L298.863 197.789C298.863 199.734 298.32 201.297 297.234 202.477C296.148 203.648 294.691 204.234 292.863 204.234C291.035 204.234 289.574 203.648 288.48 202.477C287.395 201.305 286.852 199.711 286.852 197.695V197.543ZM290.238 197.789C290.238 198.992 290.465 199.914 290.918 200.555C291.371 201.188 292.02 201.504 292.863 201.504C293.684 201.504 294.324 201.191 294.785 200.566C295.246 199.934 295.477 198.926 295.477 197.543C295.477 196.363 295.246 195.449 294.785 194.801C294.324 194.152 293.676 193.828 292.84 193.828C292.012 193.828 291.371 194.152 290.918 194.801C290.465 195.441 290.238 196.438 290.238 197.789ZM314.016 189.785H308.789V204H305.273V189.785H300.117V186.938H314.016V189.785Z" fill="white"/>
<path d="M398.046 384.982L347.056 299.543C346.309 298.29 346.309 296.76 347.056 295.507L398.046 210.067C398.802 208.798 400.213 208.017 401.734 208.017L495.215 208.017C496.736 208.017 498.146 208.798 498.903 210.067L549.892 295.507C550.266 296.133 550.453 296.825 550.453 297.525C550.453 298.225 550.266 298.916 549.892 299.543L498.903 384.982C498.146 386.252 496.736 387.033 495.215 387.033H401.734C400.213 387.033 398.802 386.251 398.046 384.982ZM492.75 378.895L541.308 297.524L492.75 216.154L404.198 216.154L355.64 297.524L404.199 378.895H492.75V378.895Z" fill="white"/>
<path d="M412.5 304.553H419.965V307.377H408.984V290.315H412.5V304.553ZM425.508 301.365V307.377H421.992V290.315H428.648C429.93 290.315 431.055 290.549 432.023 291.018C433 291.487 433.75 292.155 434.273 293.022C434.797 293.881 435.059 294.862 435.059 295.963C435.059 297.635 434.484 298.955 433.336 299.924C432.195 300.885 430.613 301.365 428.59 301.365H425.508ZM425.508 298.518H428.648C429.578 298.518 430.285 298.299 430.77 297.862C431.262 297.424 431.508 296.799 431.508 295.987C431.508 295.151 431.262 294.475 430.77 293.959C430.277 293.444 429.598 293.178 428.73 293.162H425.508V298.518ZM450.773 302.455L453.07 290.315H456.574L452.789 307.377H449.25L446.473 295.963L443.695 307.377H440.156L436.371 290.315H439.875L442.184 302.432L444.996 290.315H447.973L450.773 302.455ZM467.602 303.862H461.438L460.266 307.377H456.527L462.879 290.315H466.137L472.523 307.377H468.785L467.602 303.862ZM462.387 301.014H466.652L464.508 294.627L462.387 301.014ZM487.992 307.377H484.477L477.633 296.151V307.377H474.117V290.315H477.633L484.488 301.565V290.315H487.992V307.377Z" fill="white"/>
<path d="M225.168 486.228L174.179 400.788C173.431 399.535 173.431 398.005 174.179 396.752L225.168 311.313C225.924 310.043 227.335 309.262 228.856 309.262H322.337C323.858 309.262 325.269 310.043 326.025 311.313L377.014 396.752C377.389 397.379 377.575 398.07 377.575 398.77C377.575 399.47 377.389 400.162 377.014 400.789L326.025 486.228C325.269 487.497 323.858 488.279 322.337 488.279H228.856C227.335 488.278 225.924 487.497 225.168 486.228ZM319.872 480.141L368.431 398.77L319.872 317.399H231.321L182.762 398.77L231.321 480.141H319.872V480.141Z" fill="white"/>
<path d="M259.312 402.267V408.279H255.797V391.216H262.453C263.734 391.216 264.859 391.45 265.828 391.919C266.805 392.388 267.555 393.056 268.078 393.923C268.602 394.782 268.863 395.763 268.863 396.865C268.863 398.536 268.289 399.857 267.141 400.825C266 401.786 264.418 402.267 262.395 402.267H259.312ZM259.312 399.419H262.453C263.383 399.419 264.09 399.2 264.574 398.763C265.066 398.325 265.312 397.7 265.312 396.888C265.312 396.052 265.066 395.376 264.574 394.861C264.082 394.345 263.402 394.079 262.535 394.064H259.312V399.419ZM274.805 405.454H282.27V408.279H271.289V391.216H274.805V405.454ZM296.941 402.595C296.809 404.431 296.129 405.876 294.902 406.931C293.684 407.986 292.074 408.513 290.074 408.513C287.887 408.513 286.164 407.779 284.906 406.31C283.656 404.833 283.031 402.81 283.031 400.24V399.197C283.031 397.556 283.32 396.111 283.898 394.861C284.477 393.611 285.301 392.654 286.371 391.99C287.449 391.318 288.699 390.982 290.121 390.982C292.09 390.982 293.676 391.509 294.879 392.564C296.082 393.618 296.777 395.099 296.965 397.005H293.449C293.363 395.904 293.055 395.107 292.523 394.615C292 394.115 291.199 393.865 290.121 393.865C288.949 393.865 288.07 394.286 287.484 395.13C286.906 395.966 286.609 397.267 286.594 399.032V400.322C286.594 402.165 286.871 403.513 287.426 404.365C287.988 405.216 288.871 405.642 290.074 405.642C291.16 405.642 291.969 405.396 292.5 404.904C293.039 404.404 293.348 403.634 293.426 402.595H296.941Z" fill="white"/>
<path d="M51.5501 382.539L0.560783 297.1C-0.186928 295.847 -0.186928 294.317 0.560783 293.064L51.5501 207.624C52.3065 206.355 53.7171 205.574 55.2384 205.574L148.719 205.574C150.24 205.574 151.651 206.355 152.407 207.624L203.397 293.064C203.771 293.69 203.957 294.382 203.957 295.082C203.957 295.782 203.771 296.473 203.397 297.1L152.407 382.54C151.651 383.809 150.24 384.59 148.719 384.59H55.2384C53.7171 384.59 52.3065 383.809 51.5501 382.539ZM146.254 376.452L194.813 295.082L146.254 213.711L57.7026 213.711L9.14411 295.082L57.703 376.452H146.254V376.452Z" fill="white"/>
<path d="M92.4023 287.938V299.176C92.4023 301.043 91.8164 302.52 90.6445 303.605C89.4805 304.691 87.8867 305.234 85.8633 305.234C83.8711 305.234 82.2891 304.707 81.1172 303.652C79.9453 302.598 79.3477 301.148 79.3242 299.305V287.938H82.8398V299.199C82.8398 300.316 83.1055 301.133 83.6367 301.648C84.1758 302.156 84.918 302.41 85.8633 302.41C87.8398 302.41 88.8438 301.371 88.875 299.293V287.938H92.4023ZM109.16 305H105.645L98.8008 293.773V305H95.2852V287.938H98.8008L105.656 299.188V287.938H109.16V305ZM112.23 305V287.938H118.207C120.277 287.938 121.848 288.336 122.918 289.133C123.988 289.922 124.523 291.082 124.523 292.613C124.523 293.449 124.309 294.188 123.879 294.828C123.449 295.461 122.852 295.926 122.086 296.223C122.961 296.441 123.648 296.883 124.148 297.547C124.656 298.211 124.91 299.023 124.91 299.984C124.91 301.625 124.387 302.867 123.34 303.711C122.293 304.555 120.801 304.984 118.863 305H112.23ZM115.746 297.57V302.176H118.758C119.586 302.176 120.23 301.98 120.691 301.59C121.16 301.191 121.395 300.645 121.395 299.949C121.395 298.387 120.586 297.594 118.969 297.57H115.746ZM115.746 295.086H118.348C120.121 295.055 121.008 294.348 121.008 292.965C121.008 292.191 120.781 291.637 120.328 291.301C119.883 290.957 119.176 290.785 118.207 290.785H115.746V295.086Z" fill="white"/>
</svg>
