<svg width="355" height="305" viewBox="0 0 355 305" fill="none" xmlns="http://www.w3.org/2000/svg">
<path d="M198.135 269.543L96.0814 212.573C94.5848 211.737 93.6862 210.181 93.711 208.467L95.4005 91.601C95.4245 89.8653 96.4006 88.2422 97.9483 87.3486L193.047 32.4437C194.594 31.5501 196.488 31.5163 198.003 32.3634L300.057 89.3333C300.806 89.7512 301.402 90.3449 301.813 91.057C302.224 91.769 302.44 92.5822 302.428 93.4394L300.738 210.306C300.714 212.041 299.738 213.664 298.19 214.558L203.092 269.463C201.544 270.356 199.65 270.39 198.135 269.543ZM290.903 207.727L292.51 96.4276L195.318 42.169L105.234 94.1791L103.628 205.479L200.82 259.737L290.903 207.727V207.727Z" fill="white"/>
<line x1="111.646" y1="212.253" x2="113.133" y2="87.9618" stroke="white" stroke-width="5"/>
<line x1="122.375" y1="223.717" x2="124.119" y2="78.879" stroke="white" stroke-width="5"/>
<line x1="133.849" y1="225.119" x2="135.657" y2="75.0412" stroke="white" stroke-width="5"/>
<line x1="145.33" y1="233.803" x2="147.345" y2="66.5479" stroke="white" stroke-width="5"/>
<line x1="155.331" y1="238.564" x2="158.338" y2="60.5213" stroke="white" stroke-width="5"/>
<line x1="165.546" y1="242.154" x2="169.326" y2="51.4313" stroke="white" stroke-width="5"/>
<line x1="176.662" y1="252.01" x2="180.862" y2="47.5917" stroke="white" stroke-width="5"/>
<line x1="188.051" y1="257.642" x2="192.547" y2="39.0983" stroke="white" stroke-width="5"/>
<line x1="289.53" y1="88.0826" x2="288.043" y2="212.374" stroke="white" stroke-width="5"/>
<line x1="268.096" y1="74.6457" x2="264.956" y2="227.119" stroke="white" stroke-width="5"/>
<line x1="278.819" y1="82.0624" x2="277.102" y2="220.051" stroke="white" stroke-width="5"/>
<line x1="256.54" y1="73.2419" x2="253.258" y2="232.565" stroke="white" stroke-width="5"/>
<line x1="245.86" y1="64.5735" x2="242.279" y2="238.426" stroke="white" stroke-width="5"/>
<line x1="235.385" y1="59.7912" x2="231.572" y2="244.892" stroke="white" stroke-width="5"/>
<line x1="224.285" y1="56.1731" x2="220.252" y2="251.961" stroke="white" stroke-width="5"/>
<line x1="213.801" y1="46.3303" x2="209.445" y2="257.818" stroke="white" stroke-width="5"/>
<line x1="203.133" y1="40.7136" x2="198.54" y2="263.681" stroke="white" stroke-width="5"/>
<path d="M156.381 272.636L54.3275 215.666C52.8309 214.831 51.9323 213.274 51.9571 211.561L53.6466 94.6943C53.6706 92.9586 54.6467 91.3354 56.1944 90.4419L151.293 35.5369C152.84 34.6434 154.734 34.6096 156.249 35.4566L258.303 92.4266C259.052 92.8444 259.648 93.4382 260.059 94.1502C260.47 94.8623 260.686 95.6755 260.674 96.5327L258.984 213.399C258.96 215.135 257.984 216.758 256.436 217.651L161.338 272.556C159.79 273.449 157.896 273.483 156.381 272.636ZM249.149 210.82L250.756 99.5208L153.565 45.2623L63.4804 97.2724L61.874 208.572L159.066 262.83L249.149 210.82V210.82Z" fill="white"/>
<path d="M142.135 97.0613V205.421L238.781 261.652L337.769 205.421V94.1327L238.781 39.074L142.135 97.0613Z" fill="white" stroke="black"/>
<path d="M341.851 209.469L241.762 269.2C240.294 270.076 238.502 270.076 237.034 269.2L136.945 209.469C135.458 208.582 134.543 206.93 134.543 205.148L134.543 95.639C134.543 93.8568 135.458 92.2044 136.945 91.3182L237.034 31.5863C237.768 31.1481 238.578 30.9292 239.398 30.9292C240.218 30.9292 241.028 31.1481 241.762 31.5863L341.852 91.3182C343.339 92.2044 344.254 93.8568 344.254 95.639V205.148C344.253 206.93 343.338 208.582 341.851 209.469ZM334.721 98.5262L239.398 41.6418L144.075 98.5262L144.075 202.261L239.398 259.145L334.721 202.261V98.5262V98.5262Z" fill="white"/>
</svg>
