<svg width="96" height="96" viewBox="0 0 96 96" fill="none" xmlns="http://www.w3.org/2000/svg">
<g clip-path="url(#clip0)">
<path d="M73.8083 48C73.8083 33.7693 62.2307 22.1917 48 22.1917C33.7693 22.1917 22.1917 33.7693 22.1917 48C22.1917 54.7008 24.7594 60.8128 28.9615 65.4054L23.4731 70.8939C22.6725 71.6943 23.2506 73.0562 24.3687 73.0562C24.6929 73.0562 25.0171 72.9326 25.2644 72.6853L30.7608 67.1889C35.3599 71.3249 41.4135 73.8088 48.0014 73.8085C62.2316 73.8075 73.8083 62.2302 73.8083 48V48ZM60.4545 46.7333H49.2667V25.9138C52.7929 28.6977 59.9409 35.6692 60.4545 46.7333ZM46.7333 24.7598V46.7333H35.5472C35.9103 39.0842 39.4989 33.4102 42.5367 29.9359C42.9971 29.4093 42.9435 28.6091 42.4169 28.1486C41.8902 27.688 41.09 27.7419 40.6296 28.2685C37.3052 32.0706 33.3752 38.3005 33.0117 46.7333H24.7598C25.3973 34.9057 34.9057 25.3973 46.7333 24.7598ZM24.7598 49.2667H33.0106C33.4682 60.023 39.6675 67.254 43.7666 70.888C33.4192 68.9787 25.3466 60.1548 24.7598 49.2667V49.2667ZM35.5447 49.2667H46.7333V70.0737C40.4657 65.0984 35.9377 57.8054 35.5447 49.2667ZM49.2667 71.2402V49.2667H60.4524C60.0777 57.1817 56.2609 63.0005 53.0309 66.5481C52.5598 67.0654 52.5975 67.8666 53.1148 68.3374C53.6321 68.8085 54.4332 68.7708 54.9041 68.2535C58.4364 64.374 62.6132 57.9894 62.9883 49.2667H67C67.6995 49.2667 68.2667 48.6995 68.2667 48C68.2667 47.3005 67.6995 46.7333 67 46.7333H62.9896C62.5328 35.9795 56.3361 28.7478 52.2387 25.1131C63.0556 27.1116 71.275 36.6135 71.275 48C71.275 60.4089 61.5137 70.5801 49.2667 71.2402V71.2402ZM76.4899 74.8568L70.3499 68.7168C69.8552 68.2222 69.0533 68.2222 68.5586 68.7168C68.0638 69.2114 68.0638 70.0134 68.5586 70.508L74.7328 76.6822C72.2057 80.7239 75.128 86 79.9042 86C83.2654 86 86 83.2654 86 79.9042C86 75.0121 80.5057 72.1314 76.4899 74.8568ZM79.9042 83.4667C77.9397 83.4667 76.3417 81.8686 76.3417 79.9042C76.3417 77.9397 77.9397 76.3417 79.9042 76.3417C81.8686 76.3417 83.4667 77.9397 83.4667 79.9042C83.4667 81.8686 81.8686 83.4667 79.9042 83.4667ZM19.3176 21.2673L25.4918 27.4415C25.9866 27.9363 26.7884 27.9362 27.283 27.4415C27.7778 26.9469 27.7778 26.1449 27.283 25.6503L21.1432 19.5101C23.8684 15.4943 20.9875 10 16.0958 10C12.7346 10 10 12.7346 10 16.0958C10 20.8788 15.2833 23.7897 19.3176 21.2673ZM16.0958 12.5333C18.0603 12.5333 19.6583 14.1314 19.6583 16.0958C19.6583 18.0603 18.0603 19.6583 16.0958 19.6583C14.1314 19.6583 12.5333 18.0603 12.5333 16.0958C12.5333 14.1314 14.1314 12.5333 16.0958 12.5333ZM16.0958 73.8083C12.7346 73.8083 10 76.5429 10 79.9042C10 83.2654 12.7346 86 16.0958 86C19.4571 86 22.1917 83.2654 22.1917 79.9042C22.1917 76.5429 19.4571 73.8083 16.0958 73.8083ZM16.0958 83.4667C14.1314 83.4667 12.5333 81.8686 12.5333 79.9042C12.5333 77.9397 14.1314 76.3417 16.0958 76.3417C18.0603 76.3417 19.6583 77.9397 19.6583 79.9042C19.6583 81.8686 18.0603 83.4667 16.0958 83.4667ZM70.3499 27.2832L76.4899 21.1432C80.5057 23.8684 86 20.9875 86 16.0958C86 12.7346 83.2654 10 79.9042 10C75.1212 10 72.2103 15.2833 74.7327 19.3176L68.5585 25.4918C68.0637 25.9864 68.0637 26.7884 68.5585 27.283C69.0533 27.7778 69.8552 27.7778 70.3499 27.2832V27.2832ZM79.9042 12.5333C81.8686 12.5333 83.4667 14.1314 83.4667 16.0958C83.4667 18.0603 81.8686 19.6583 79.9042 19.6583C77.9397 19.6583 76.3417 18.0603 76.3417 16.0958C76.3417 14.1314 77.9397 12.5333 79.9042 12.5333Z" fill="black"/>
</g>
<defs>
<clipPath id="clip0">
<rect width="76" height="76" fill="white" transform="translate(10 10)"/>
</clipPath>
</defs>
</svg>
