<svg width="96" height="96" viewBox="0 0 96 96" fill="none" xmlns="http://www.w3.org/2000/svg">
<path d="M48 8C25.9089 8 8 25.9089 8 48C8 70.0911 25.9089 88 48 88C70.0911 88 88 70.0911 88 48C87.9753 25.9193 70.0807 8.02474 48 8ZM48 85.3333C27.3815 85.3333 10.6667 68.6185 10.6667 48C10.6667 27.3815 27.3815 10.6667 48 10.6667C68.6185 10.6667 85.3333 27.3815 85.3333 48C85.3099 68.6087 68.6087 85.3099 48 85.3333Z" fill="#0B0B0B"/>
<path d="M61.3333 42.6666H51.9999V28C51.9999 27.4121 51.6158 26.8938 51.0533 26.7239C50.4908 26.5533 49.8834 26.7708 49.5572 27.2597L33.5572 51.2597C33.2844 51.6692 33.2591 52.1953 33.4908 52.6289C33.7226 53.0625 34.1751 53.3333 34.6666 53.3333H43.9999V68C43.9999 68.5879 44.384 69.1061 44.9465 69.276C45.509 69.4466 46.1165 69.2291 46.4426 68.7402L62.4426 44.7402C62.7154 44.3307 62.7408 43.8047 62.509 43.3711C62.2773 42.9375 61.8248 42.6666 61.3333 42.6666V42.6666ZM46.6666 63.6002V52C46.6666 51.2636 46.0696 50.6666 45.3333 50.6666H37.1588L49.3333 32.3997V44C49.3333 44.7363 49.9303 45.3333 50.6666 45.3333H58.8411L46.6666 63.6002Z" fill="#0B0B0B"/>
</svg>
