<svg width="96" height="96" viewBox="0 0 96 96" fill="none" xmlns="http://www.w3.org/2000/svg">
<path d="M34.7583 39.5709C34.2917 39.5709 33.8337 39.3492 33.5508 38.9351C31.5558 36.0038 30.5 32.5855 30.5 29.0417C30.5 25.498 31.5558 22.0797 33.5537 19.1484C34.0058 18.4834 34.9129 18.3142 35.5808 18.7663C36.2458 19.2213 36.4179 20.1284 35.9629 20.7934C34.2975 23.2347 33.4167 26.0872 33.4167 29.0417C33.4167 31.9963 34.2975 34.8488 35.9629 37.2901C36.4179 37.9551 36.2458 38.8622 35.5808 39.3172C35.3271 39.4892 35.0442 39.5709 34.7583 39.5709Z" fill="#0B0B0B"/>
<path d="M61.2417 39.5709C60.9588 39.5709 60.673 39.4892 60.4221 39.3172C59.7571 38.8622 59.585 37.9551 60.04 37.2901C61.7025 34.8488 62.5834 31.9963 62.5834 29.0417C62.5834 26.0872 61.7025 23.2347 60.0371 20.7934C59.5821 20.1284 59.7542 19.2213 60.4192 18.7663C61.0871 18.3142 61.9942 18.4834 62.4463 19.1484C64.4442 22.0797 65.5 25.498 65.5 29.0417C65.5 32.5855 64.4442 36.0038 62.4463 38.9351C62.1634 39.3492 61.7055 39.5709 61.2417 39.5709Z" fill="#0B0B0B"/>
<path d="M27.5571 44.5C27.0933 44.5 26.6354 44.2783 26.3525 43.8671C23.3425 39.4804 21.75 34.3558 21.75 29.0416C21.75 23.7275 23.3425 18.6029 26.3525 14.2162C26.8075 13.5512 27.7146 13.3879 28.3796 13.84C29.0446 14.295 29.2108 15.2021 28.7558 15.8671C26.0812 19.7637 24.6667 24.3196 24.6667 29.0416C24.6667 33.7637 26.0812 38.3196 28.7558 42.2162C29.2108 42.8812 29.0446 43.7883 28.3796 44.2433C28.1287 44.4154 27.84 44.5 27.5571 44.5V44.5Z" fill="#0B0B0B"/>
<path d="M68.4428 44.5C68.157 44.5 67.8712 44.4183 67.6174 44.2433C66.9524 43.7883 66.7862 42.8812 67.2412 42.2162C69.9187 38.3196 71.3332 33.7637 71.3332 29.0416C71.3332 24.3196 69.9187 19.7637 67.2441 15.8671C66.7891 15.2021 66.9553 14.295 67.6203 13.84C68.2853 13.3879 69.1953 13.5512 69.6474 14.2162C72.6574 18.6029 74.2499 23.7275 74.2499 29.0416C74.2499 34.3558 72.6574 39.4804 69.6474 43.8671C69.3645 44.2783 68.9066 44.5 68.4428 44.5V44.5Z" fill="#0B0B0B"/>
<path d="M47.9999 36.3333C43.9807 36.3333 40.7083 33.0608 40.7083 29.0417C40.7083 25.0225 43.9807 21.75 47.9999 21.75C52.0191 21.75 55.2916 25.0225 55.2916 29.0417C55.2916 33.0608 52.0191 36.3333 47.9999 36.3333ZM47.9999 24.6667C45.5878 24.6667 43.6249 26.6296 43.6249 29.0417C43.6249 31.4538 45.5878 33.4167 47.9999 33.4167C50.412 33.4167 52.3749 31.4538 52.3749 29.0417C52.3749 26.6296 50.412 24.6667 47.9999 24.6667Z" fill="#0B0B0B"/>
<path d="M61.4545 83H34.5454C33.122 83 31.827 82.3379 30.9958 81.1829C30.1645 80.0279 29.9458 78.59 30.395 77.2396L44.777 34.0933C45.0308 33.3292 45.8533 32.9121 46.6204 33.1717C47.3845 33.4254 47.7958 34.2508 47.542 35.015L33.1629 78.1642C33.0141 78.6133 33.087 79.0917 33.3641 79.4796C33.6412 79.8617 34.0729 80.0833 34.5454 80.0833H61.4545C61.93 80.0833 62.3616 79.8617 62.6358 79.4767C62.9129 79.0917 62.9858 78.6133 62.837 78.1612L48.455 35.015C48.2012 34.2508 48.6125 33.4254 49.3766 33.1717C50.1437 32.9121 50.9662 33.3292 51.22 34.0933L65.602 77.2396C66.0541 78.59 65.8354 80.0279 65.0012 81.1829C64.167 82.3379 62.8779 83 61.4545 83V83Z" fill="#0B0B0B"/>
<path d="M31.9584 81.393C31.4071 81.393 30.8763 81.078 30.6313 80.5442C30.2959 79.8122 30.6167 78.9459 31.3488 78.6105L56.855 66.8826L37.7975 59.4042C37.2754 59.2001 36.9167 58.713 36.8759 58.153C36.835 57.5959 37.1179 57.0592 37.605 56.7822L53.8363 47.4634C54.5363 47.0609 55.4259 47.303 55.8284 48.003C56.2309 48.703 55.9888 49.5926 55.2888 49.9951L41.6913 57.8001L61.1105 65.4184C61.6559 65.6313 62.0205 66.1476 62.035 66.7338C62.0496 67.3172 61.7171 67.8567 61.1863 68.0988L32.565 81.2559C32.3696 81.3492 32.1625 81.393 31.9584 81.393V81.393Z" fill="#0B0B0B"/>
</svg>
