<svg width="96" height="96" viewBox="0 0 96 96" fill="none" xmlns="http://www.w3.org/2000/svg">
<path d="M52.2421 52.905C49.5072 51.879 46.493 51.879 43.7581 52.905C43.3938 53.0503 43.1008 53.3324 42.942 53.691C42.7831 54.0496 42.7711 54.4562 42.9084 54.8236C43.0457 55.191 43.3214 55.4899 43.6765 55.6565C44.0316 55.823 44.4378 55.8439 44.8081 55.7146C46.8626 54.9406 49.1286 54.9406 51.1831 55.7146C51.5534 55.8439 51.9596 55.823 52.3146 55.6565C52.6697 55.4899 52.9455 55.191 53.0828 54.8236C53.2201 54.4562 53.208 54.0496 53.0492 53.691C52.8904 53.3324 52.5974 53.0503 52.2331 52.905H52.2421Z" fill="#0B0B0B"/>
<path d="M55.8345 48.0795C53.4137 46.8243 50.7268 46.1692 48 46.1692C45.2732 46.1692 42.5863 46.8243 40.1655 48.0795C39.8236 48.2687 39.5691 48.5838 39.456 48.9579C39.343 49.3319 39.3803 49.7353 39.5601 50.0822C39.7399 50.4291 40.048 50.6921 40.4188 50.8154C40.7896 50.9386 41.1938 50.9123 41.5455 50.742C43.5406 49.7101 45.7539 49.1715 48 49.1715C50.2461 49.1715 52.4595 49.7101 54.4545 50.742C54.8062 50.9123 55.2105 50.9386 55.5813 50.8154C55.9521 50.6921 56.2601 50.4291 56.4399 50.0822C56.6198 49.7353 56.6571 49.3319 56.544 48.9579C56.431 48.5838 56.1764 48.2687 55.8345 48.0795Z" fill="#0B0B0B"/>
<path d="M38.2785 45.8999C41.2069 44.1149 44.5703 43.1706 48 43.1706C51.4296 43.1706 54.793 44.1149 57.7214 45.8999C58.0618 46.1064 58.4702 46.1692 58.8569 46.0746C59.2435 45.9799 59.5767 45.7355 59.7832 45.3952C59.9897 45.0549 60.0525 44.6464 59.9578 44.2598C59.8632 43.8731 59.6188 43.5399 59.2785 43.3334C55.8806 41.2636 51.9786 40.1687 48 40.1687C44.0213 40.1687 40.1193 41.2636 36.7215 43.3334C36.3811 43.5399 36.1367 43.8731 36.0421 44.2598C35.9474 44.6464 36.0102 45.0549 36.2167 45.3952C36.4232 45.7355 36.7564 45.9799 37.143 46.0746C37.5297 46.1692 37.9381 46.1064 38.2785 45.8999Z" fill="#0B0B0B"/>
<path d="M12 56.9999C13.0699 56.998 14.1307 56.8039 15.132 56.4269L24.396 72.4769C23.2505 73.3847 22.3434 74.5577 21.7529 75.8946C21.1625 77.2315 20.9065 78.6922 21.0071 80.1502C21.1077 81.6083 21.5619 83.0199 22.3304 84.263C23.0989 85.5062 24.1586 86.5435 25.4179 87.2853C26.6771 88.0271 28.0981 88.451 29.558 88.5205C31.0179 88.5899 32.4727 88.3028 33.7967 87.684C35.1207 87.0651 36.2741 86.1331 37.1572 84.9685C38.0402 83.804 38.6264 82.4418 38.865 80.9999H57.135C57.3749 82.4412 57.9621 83.8023 58.8459 84.9658C59.7296 86.1293 60.8834 87.0601 62.2074 87.6779C63.5314 88.2957 64.986 88.5818 66.4454 88.5116C67.9047 88.4414 69.3251 88.0169 70.5837 87.2749C71.8423 86.5328 72.9013 85.4955 73.6693 84.2526C74.4373 83.0096 74.8911 81.5984 74.9915 80.1408C75.092 78.6831 74.8361 77.223 74.2459 75.8864C73.6557 74.5499 72.7489 73.3771 71.604 72.4694L80.868 56.4269C82.2296 56.9375 83.6947 57.1106 85.1379 56.9312C86.581 56.7519 87.9592 56.2256 89.1544 55.3972C90.3497 54.5689 91.3264 53.4633 92.001 52.175C92.6756 50.8867 93.028 49.4542 93.028 47.9999C93.028 46.5457 92.6756 45.1131 92.001 43.8249C91.3264 42.5366 90.3497 41.431 89.1544 40.6026C87.9592 39.7743 86.581 39.248 85.1379 39.0686C83.6947 38.8893 82.2296 39.0623 80.868 39.5729L71.604 23.5229C72.7495 22.6152 73.6566 21.4422 74.2471 20.1053C74.8375 18.7683 75.0935 17.3077 74.9929 15.8497C74.8923 14.3916 74.4381 12.98 73.6696 11.7368C72.9011 10.4937 71.8414 9.45638 70.5822 8.7146C69.3229 7.97282 67.9019 7.54887 66.442 7.47941C64.9822 7.40995 63.5273 7.69705 62.2033 8.31592C60.8793 8.93478 59.7259 9.86678 58.8428 11.0314C57.9598 12.1959 57.3736 13.558 57.135 14.9999H38.865C38.6251 13.5587 38.0379 12.1976 37.1541 11.0341C36.2704 9.87058 35.1166 8.93974 33.7926 8.32197C32.4686 7.70419 31.014 7.41806 29.5546 7.48828C28.0953 7.55849 26.6749 7.98296 25.4163 8.725C24.1577 9.46704 23.0987 10.5043 22.3307 11.7473C21.5627 12.9903 21.1089 14.4015 21.0085 15.8591C20.908 17.3167 21.164 18.7769 21.7542 20.1134C22.3444 21.45 23.2511 22.6228 24.396 23.5304L15.132 39.5804C13.8964 39.1138 12.5732 38.9249 11.2564 39.027C9.93956 39.1292 8.66136 39.5199 7.51248 40.1715C6.3636 40.823 5.37222 41.7195 4.60868 42.7972C3.84514 43.8749 3.32816 45.1075 3.09443 46.4074C2.8607 47.7074 2.91596 49.0428 3.25627 50.319C3.59658 51.5952 4.21361 52.7808 5.06356 53.7918C5.91352 54.8027 6.97557 55.6142 8.17435 56.1687C9.37312 56.7231 10.6792 57.0069 12 56.9999V56.9999ZM17.7345 54.9314C19.3946 53.5541 20.5054 51.6268 20.865 49.4999H30.0705C30.2804 52.1436 31.0776 54.7071 32.4039 57.0036C33.7302 59.3002 35.5521 61.2718 37.737 62.7749L32.979 71.0174C31.0529 70.3275 28.9471 70.3275 27.021 71.0174L17.7345 54.9314ZM33 47.9999C33.001 44.5068 34.2211 41.1235 36.4498 38.4338C38.6786 35.744 41.7762 33.9165 45.2083 33.2663C48.6404 32.6162 52.1918 33.1843 55.2498 34.8726C58.3079 36.5609 60.6808 39.2636 61.9593 42.5143C63.2377 45.7651 63.3416 49.3602 62.2529 52.6793C61.1642 55.9984 58.9512 58.8336 55.9957 60.6956C53.0402 62.5576 49.5275 63.3297 46.0636 62.8787C42.5997 62.4278 39.4018 60.7821 37.0215 58.2254C34.4294 55.4524 32.9914 51.7958 33 47.9999V47.9999ZM30 85.4999C28.8133 85.4999 27.6533 85.148 26.6666 84.4887C25.6799 83.8295 24.9108 82.8924 24.4567 81.796C24.0026 80.6997 23.8838 79.4933 24.1153 78.3294C24.3468 77.1655 24.9182 76.0964 25.7574 75.2573C26.5965 74.4182 27.6656 73.8467 28.8295 73.6152C29.9933 73.3837 31.1997 73.5025 32.2961 73.9567C33.3925 74.4108 34.3295 75.1798 34.9888 76.1665C35.6481 77.1532 36 78.3132 36 79.4999C36 81.0912 35.3679 82.6174 34.2426 83.7426C33.1174 84.8678 31.5913 85.4999 30 85.4999ZM57.135 77.9999H38.865C38.4949 75.8182 37.3339 73.8493 35.604 72.4694L40.344 64.2614C42.734 65.4059 45.3501 65.9999 48 65.9999C50.6499 65.9999 53.266 65.4059 55.656 64.2614L60.396 72.4694C58.6661 73.8493 57.5051 75.8182 57.135 77.9999ZM72 79.4999C72 80.6866 71.6481 81.8467 70.9888 82.8334C70.3295 83.82 69.3925 84.5891 68.2961 85.0432C67.1998 85.4973 65.9933 85.6162 64.8295 85.3846C63.6656 85.1531 62.5965 84.5817 61.7574 83.7426C60.9183 82.9035 60.3468 81.8344 60.1153 80.6705C59.8838 79.5066 60.0026 78.3002 60.4567 77.2038C60.9109 76.1075 61.6799 75.1704 62.6666 74.5111C63.6533 73.8518 64.8133 73.4999 66 73.4999C67.5913 73.4999 69.1174 74.1321 70.2426 75.2573C71.3679 76.3825 72 77.9086 72 79.4999ZM68.979 71.0174C67.0529 70.3275 64.9471 70.3275 63.021 71.0174L58.263 62.7749C60.4479 61.2718 62.2699 59.3002 63.5961 57.0036C64.9224 54.7071 65.7196 52.1436 65.9295 49.4999H75.135C75.4946 51.6268 76.6054 53.5541 78.2655 54.9314L68.979 71.0174ZM84 41.9999C85.1867 41.9999 86.3467 42.3518 87.3334 43.0111C88.3201 43.6704 89.0892 44.6075 89.5433 45.7038C89.9974 46.8002 90.1162 48.0066 89.8847 49.1705C89.6532 50.3344 89.0818 51.4035 88.2426 52.2426C87.4035 53.0817 86.3344 53.6531 85.1705 53.8846C84.0067 54.1162 82.8003 53.9973 81.7039 53.5432C80.6075 53.0891 79.6705 52.3201 79.0112 51.3334C78.3519 50.3467 78 49.1866 78 47.9999C78 46.4086 78.6321 44.8825 79.7574 43.7573C80.8826 42.6321 82.4087 41.9999 84 41.9999V41.9999ZM78.2655 41.0684C76.6054 42.4458 75.4946 44.373 75.135 46.4999H65.9295C65.7196 43.8563 64.9224 41.2928 63.5961 38.9962C62.2699 36.6997 60.4479 34.728 58.263 33.2249L63.021 24.9824C64.9471 25.6724 67.0529 25.6724 68.979 24.9824L78.2655 41.0684ZM66 10.4999C67.1867 10.4999 68.3467 10.8518 69.3334 11.5111C70.3201 12.1704 71.0892 13.1075 71.5433 14.2038C71.9974 15.3002 72.1162 16.5066 71.8847 17.6705C71.6532 18.8344 71.0818 19.9035 70.2426 20.7426C69.4035 21.5817 68.3344 22.1531 67.1705 22.3847C66.0067 22.6162 64.8003 22.4973 63.7039 22.0432C62.6075 21.5891 61.6705 20.8201 61.0112 19.8334C60.3519 18.8467 60 17.6866 60 16.4999C60 14.9086 60.6321 13.3825 61.7574 12.2573C62.8826 11.1321 64.4087 10.4999 66 10.4999V10.4999ZM38.865 17.9999H57.135C57.5051 20.1817 58.6661 22.1505 60.396 23.5304L55.65 31.7384C53.26 30.594 50.6439 29.9999 47.994 29.9999C45.3441 29.9999 42.728 30.594 40.338 31.7384L35.598 23.5304C37.3302 22.1515 38.4933 20.1825 38.865 17.9999ZM24 16.4999C24 15.3133 24.3519 14.1532 25.0112 13.1665C25.6705 12.1798 26.6075 11.4108 27.7039 10.9567C28.8003 10.5025 30.0067 10.3837 31.1705 10.6152C32.3344 10.8467 33.4035 11.4182 34.2426 12.2573C35.0818 13.0964 35.6532 14.1655 35.8847 15.3294C36.1162 16.4933 35.9974 17.6997 35.5433 18.796C35.0892 19.8924 34.3201 20.8295 33.3334 21.4888C32.3467 22.148 31.1867 22.4999 30 22.4999C28.4087 22.4999 26.8826 21.8678 25.7574 20.7426C24.6321 19.6174 24 18.0912 24 16.4999ZM27.021 24.9824C28.9471 25.6724 31.0529 25.6724 32.979 24.9824L37.737 33.2249C35.5521 34.728 33.7302 36.6997 32.4039 38.9962C31.0776 41.2928 30.2804 43.8563 30.0705 46.4999H20.865C20.5054 44.373 19.3946 42.4458 17.7345 41.0684L27.021 24.9824ZM12 41.9999C13.1867 41.9999 14.3467 42.3518 15.3334 43.0111C16.3201 43.6704 17.0892 44.6075 17.5433 45.7038C17.9974 46.8002 18.1162 48.0066 17.8847 49.1705C17.6532 50.3344 17.0818 51.4035 16.2426 52.2426C15.4035 53.0817 14.3344 53.6531 13.1705 53.8846C12.0067 54.1162 10.8003 53.9973 9.7039 53.5432C8.60754 53.0891 7.67047 52.3201 7.01118 51.3334C6.35189 50.3467 6 49.1866 6 47.9999C6 46.4086 6.63214 44.8825 7.75736 43.7573C8.88258 42.6321 10.4087 41.9999 12 41.9999V41.9999Z" fill="#0B0B0B"/>
</svg>
