<svg width="96" height="96" viewBox="0 0 96 96" fill="none" xmlns="http://www.w3.org/2000/svg">
<path d="M43.4431 34.1804C43.1584 34.2938 42.9295 34.5142 42.8055 34.7944C42.6814 35.0746 42.672 35.3922 42.7792 35.6792C42.8865 35.9662 43.1019 36.1998 43.3793 36.3299C43.6568 36.46 43.9741 36.4763 44.2634 36.3753C46.3478 35.5924 48.6454 35.5924 50.7298 36.3753C51.019 36.4763 51.3364 36.46 51.6138 36.3299C51.8912 36.1998 52.1066 35.9662 52.2139 35.6792C52.3212 35.3922 52.3118 35.0746 52.1877 34.7944C52.0636 34.5142 51.8347 34.2938 51.5501 34.1804C48.9362 33.2024 46.0569 33.2024 43.4431 34.1804V34.1804Z" fill="black"/>
<path d="M54.5067 31.6446C54.769 31.6447 55.0238 31.5567 55.2303 31.3948C55.4367 31.2328 55.5828 31.0063 55.6452 30.7514C55.7076 30.4966 55.6826 30.2282 55.5744 29.9892C55.4661 29.7502 55.2808 29.5545 55.0481 29.4333C52.7155 28.2252 50.1269 27.5946 47.5 27.5946C44.8731 27.5946 42.2846 28.2252 39.952 29.4333C39.8127 29.5026 39.6887 29.5989 39.587 29.7167C39.4854 29.8345 39.4082 29.9713 39.36 30.1192C39.3118 30.267 39.2935 30.4231 39.3062 30.5781C39.3189 30.7331 39.3623 30.8841 39.4339 31.0222C39.5056 31.1602 39.604 31.2827 39.7234 31.3823C39.8429 31.4819 39.981 31.5568 40.1297 31.6025C40.2783 31.6483 40.4346 31.6639 40.5894 31.6486C40.7442 31.6333 40.8944 31.5873 41.0313 31.5134C43.0303 30.4778 45.2487 29.9372 47.5 29.9372C49.7514 29.9372 51.9698 30.4778 53.9688 31.5134C54.135 31.5995 54.3195 31.6445 54.5067 31.6446V31.6446Z" fill="black"/>
<path d="M57.7996 26.9452C58.0559 26.946 58.3054 26.8628 58.5099 26.7082C58.7143 26.5536 58.8624 26.3363 58.9316 26.0895C59.0007 25.8427 58.9871 25.5801 58.8927 25.3418C58.7983 25.1035 58.6284 24.9027 58.409 24.7703C55.1222 22.769 51.3482 21.7104 47.5 21.7104C43.6518 21.7104 39.8778 22.769 36.591 24.7703C36.4594 24.8501 36.3447 24.9551 36.2537 25.0793C36.1626 25.2035 36.0969 25.3444 36.0602 25.494C36.0236 25.6435 36.0168 25.7988 36.0402 25.951C36.0636 26.1032 36.1168 26.2493 36.1967 26.381C36.2765 26.5126 36.3816 26.6273 36.5057 26.7184C36.6299 26.8094 36.7708 26.8751 36.9204 26.9118C37.0699 26.9484 37.2253 26.9552 37.3775 26.9318C37.5297 26.9084 37.6758 26.8552 37.8074 26.7753C40.7272 24.9957 44.0806 24.0543 47.5 24.0543C50.9194 24.0543 54.2728 24.9957 57.1926 26.7753C57.3756 26.8863 57.5856 26.9451 57.7996 26.9452V26.9452Z" fill="black"/>
<path d="M81.4844 67.431H73.1148C72.9053 66.6252 72.4843 65.8899 71.8956 65.3011C71.3068 64.7123 70.5715 64.2914 69.7656 64.0818V53.3685H75.625C75.9358 53.3685 76.2339 53.2451 76.4536 53.0253C76.6734 52.8055 76.7969 52.5075 76.7969 52.1967V40.4779C76.7969 40.1671 76.6734 39.869 76.4536 39.6493C76.2339 39.4295 75.9358 39.306 75.625 39.306H61.5625C61.2517 39.306 60.9536 39.4295 60.7339 39.6493C60.5141 39.869 60.3906 40.1671 60.3906 40.4779V52.1967C60.3906 52.5075 60.5141 52.8055 60.7339 53.0253C60.9536 53.2451 61.2517 53.3685 61.5625 53.3685H67.4219V64.0818C66.616 64.2914 65.8807 64.7123 65.2919 65.3011C64.7032 65.8899 64.2822 66.6252 64.0727 67.431H52.0211C51.8115 66.6252 51.3906 65.8899 50.8018 65.3011C50.213 64.7123 49.4777 64.2914 48.6719 64.0818V53.3685H54.5312C54.8421 53.3685 55.1401 53.2451 55.3599 53.0253C55.5797 52.8055 55.7031 52.5075 55.7031 52.1967V40.4779C55.7031 40.1671 55.5797 39.869 55.3599 39.6493C55.1401 39.4295 54.8421 39.306 54.5312 39.306H40.4688C40.1579 39.306 39.8599 39.4295 39.6401 39.6493C39.4203 39.869 39.2969 40.1671 39.2969 40.4779V52.1967C39.2969 52.5075 39.4203 52.8055 39.6401 53.0253C39.8599 53.2451 40.1579 53.3685 40.4688 53.3685H46.3281V64.0818C45.5223 64.2914 44.787 64.7123 44.1982 65.3011C43.6094 65.8899 43.1885 66.6252 42.9789 67.431H30.9273C30.7178 66.6252 30.2968 65.8899 29.7081 65.3011C29.1193 64.7123 28.384 64.2914 27.5781 64.0818V53.3685H33.4375C33.7483 53.3685 34.0464 53.2451 34.2661 53.0253C34.4859 52.8055 34.6094 52.5075 34.6094 52.1967V40.4779C34.6094 40.1671 34.4859 39.869 34.2661 39.6493C34.0464 39.4295 33.7483 39.306 33.4375 39.306H19.375C19.0642 39.306 18.7661 39.4295 18.5464 39.6493C18.3266 39.869 18.2031 40.1671 18.2031 40.4779V52.1967C18.2031 52.5075 18.3266 52.8055 18.5464 53.0253C18.7661 53.2451 19.0642 53.3685 19.375 53.3685H25.2344V64.0818C24.4285 64.2914 23.6932 64.7123 23.1044 65.3011C22.5157 65.8899 22.0947 66.6252 21.8852 67.431H13.5156C13.2048 67.431 12.9068 67.5545 12.687 67.7743C12.4672 67.994 12.3438 68.2921 12.3438 68.6029C12.3438 68.9137 12.4672 69.2118 12.687 69.4316C12.9068 69.6513 13.2048 69.7748 13.5156 69.7748H21.8852C22.1409 70.7798 22.7243 71.6709 23.543 72.3073C24.3618 72.9438 25.3692 73.2893 26.4062 73.2893C27.4433 73.2893 28.4507 72.9438 29.2695 72.3073C30.0882 71.6709 30.6716 70.7798 30.9273 69.7748H42.9789C43.2347 70.7798 43.818 71.6709 44.6368 72.3073C45.4555 72.9438 46.463 73.2893 47.5 73.2893C48.537 73.2893 49.5445 72.9438 50.3632 72.3073C51.182 71.6709 51.7653 70.7798 52.0211 69.7748H64.0727C64.3284 70.7798 64.9118 71.6709 65.7305 72.3073C66.5493 72.9438 67.5567 73.2893 68.5938 73.2893C69.6308 73.2893 70.6382 72.9438 71.457 72.3073C72.2757 71.6709 72.8591 70.7798 73.1148 69.7748H81.4844C81.7952 69.7748 82.0932 69.6513 82.313 69.4316C82.5328 69.2118 82.6562 68.9137 82.6562 68.6029C82.6562 68.2921 82.5328 67.994 82.313 67.7743C82.0932 67.5545 81.7952 67.431 81.4844 67.431V67.431ZM20.5469 51.0248V41.6498H32.2656V51.0248H20.5469ZM26.4062 70.9467C25.9427 70.9467 25.4896 70.8092 25.1041 70.5517C24.7187 70.2941 24.4183 69.9281 24.2409 69.4998C24.0635 69.0716 24.0171 68.6003 24.1075 68.1457C24.198 67.691 24.4212 67.2734 24.749 66.9456C25.0767 66.6179 25.4944 66.3946 25.949 66.3042C26.4037 66.2138 26.8749 66.2602 27.3032 66.4376C27.7314 66.615 28.0975 66.9154 28.355 67.3008C28.6125 67.6862 28.75 68.1394 28.75 68.6029C28.75 69.2245 28.5031 69.8207 28.0635 70.2602C27.624 70.6997 27.0279 70.9467 26.4062 70.9467ZM41.6406 51.0248V41.6498H53.3594V51.0248H41.6406ZM47.5 70.9467C47.0365 70.9467 46.5833 70.8092 46.1979 70.5517C45.8125 70.2941 45.5121 69.9281 45.3347 69.4998C45.1573 69.0716 45.1109 68.6003 45.2013 68.1457C45.2917 67.691 45.5149 67.2734 45.8427 66.9456C46.1705 66.6179 46.5881 66.3946 47.0428 66.3042C47.4974 66.2138 47.9686 66.2602 48.3969 66.4376C48.8252 66.615 49.1912 66.9154 49.4488 67.3008C49.7063 67.6862 49.8438 68.1394 49.8438 68.6029C49.8438 69.2245 49.5968 69.8207 49.1573 70.2602C48.7177 70.6997 48.1216 70.9467 47.5 70.9467ZM62.7344 51.0248V41.6498H74.4531V51.0248H62.7344ZM68.5938 70.9467C68.1302 70.9467 67.6771 70.8092 67.2916 70.5517C66.9062 70.2941 66.6058 69.9281 66.4284 69.4998C66.251 69.0716 66.2046 68.6003 66.295 68.1457C66.3855 67.691 66.6087 67.2734 66.9365 66.9456C67.2642 66.6179 67.6819 66.3946 68.1365 66.3042C68.5911 66.2138 69.0624 66.2602 69.4907 66.4376C69.9189 66.615 70.285 66.9154 70.5425 67.3008C70.8 67.6862 70.9375 68.1394 70.9375 68.6029C70.9375 69.2245 70.6906 69.8207 70.251 70.2602C69.8115 70.6997 69.2154 70.9467 68.5938 70.9467Z" fill="black"/>
</svg>
