<svg width="96" height="96" viewBox="0 0 96 96" fill="none" xmlns="http://www.w3.org/2000/svg">
<g clip-path="url(#clip0)">
<path d="M67.7018 69.6453C67.499 69.6452 67.3008 69.5842 67.133 69.4702C66.9652 69.3562 66.8354 69.1945 66.7606 69.006C66.6857 68.8174 66.6691 68.6108 66.7129 68.4127C66.7568 68.2146 66.8591 68.0343 67.0066 67.895C67.6542 67.2869 68.316 66.5886 68.9738 65.8295C69.0613 65.7286 69.1678 65.6461 69.2872 65.5864C69.4067 65.5267 69.5367 65.4912 69.6699 65.4818C69.803 65.4724 69.9368 65.4893 70.0634 65.5315C70.19 65.5738 70.3071 65.6406 70.4079 65.7281C70.5087 65.8156 70.5913 65.9221 70.651 66.0416C70.7107 66.161 70.7462 66.291 70.7556 66.4242C70.765 66.5574 70.7481 66.6911 70.7058 66.8177C70.6636 66.9443 70.5968 67.0614 70.5093 67.1622C69.8439 67.9347 69.1399 68.6732 68.4001 69.3747C68.2109 69.5514 67.9607 69.6483 67.7018 69.6453V69.6453Z" fill="#0B0B0B"/>
<path d="M52.6905 77.2873C52.4364 77.2883 52.1913 77.1939 52.0036 77.0227C51.8159 76.8515 51.6993 76.6161 51.677 76.363C51.5821 75.32 51.1008 74.3501 50.3274 73.6438C49.554 72.9376 48.5446 72.546 47.4972 72.546C46.4499 72.546 45.4404 72.9376 44.667 73.6438C43.8937 74.3501 43.4123 75.32 43.3175 76.363C43.3056 76.5035 43.2645 76.6399 43.1969 76.7635C43.1293 76.8872 43.0367 76.9954 42.9249 77.0813C42.8131 77.1671 42.6846 77.2287 42.5477 77.2621C42.4108 77.2955 42.2684 77.2999 42.1297 77.2752C36.0638 76.1756 30.4783 73.2503 26.1199 68.8905C21.7615 64.5306 18.8381 58.9441 17.7405 52.8779C17.7157 52.7391 17.7202 52.5968 17.7536 52.4598C17.787 52.3229 17.8485 52.1944 17.9344 52.0827C18.0202 51.9709 18.1284 51.8782 18.2521 51.8106C18.3758 51.743 18.5122 51.702 18.6526 51.69C19.6979 51.6015 20.6713 51.122 21.3785 50.3472C22.0857 49.5724 22.4745 48.5593 22.4675 47.5103C22.4629 46.4642 22.0696 45.4571 21.3641 44.6847C20.6585 43.9122 19.691 43.4296 18.6496 43.3306C18.5091 43.3187 18.3727 43.2776 18.2491 43.21C18.1254 43.1424 18.0172 43.0498 17.9313 42.938C17.8455 42.8262 17.7839 42.6977 17.7505 42.5608C17.7171 42.4239 17.7127 42.2815 17.7374 42.1428C18.8357 36.0768 21.7598 30.4907 26.1188 26.1315C30.4777 21.7724 36.0637 18.848 42.1297 17.7495C42.2684 17.7248 42.4108 17.7292 42.5477 17.7626C42.6846 17.796 42.8131 17.8576 42.9249 17.9434C43.0367 18.0293 43.1293 18.1375 43.1969 18.2612C43.2645 18.3848 43.3056 18.5212 43.3175 18.6617C43.4123 19.7047 43.8937 20.6746 44.667 21.3809C45.4404 22.0871 46.4499 22.4787 47.4972 22.4787C48.5446 22.4787 49.554 22.0871 50.3274 21.3809C51.1008 20.6746 51.5821 19.7047 51.677 18.6617C51.6889 18.5212 51.7299 18.3848 51.7975 18.2612C51.8651 18.1375 51.9578 18.0293 52.0696 17.9434C52.1813 17.8576 52.3098 17.796 52.4467 17.7626C52.5837 17.7292 52.726 17.7248 52.8648 17.7495C58.9317 18.8471 64.5188 21.771 68.8787 26.1303C73.2386 30.4895 76.1635 36.0761 77.2621 42.1428C77.2868 42.2815 77.2824 42.4239 77.249 42.5608C77.2156 42.6977 77.154 42.8262 77.0682 42.938C76.9823 43.0498 76.8741 43.1424 76.7504 43.21C76.6268 43.2776 76.4904 43.3187 76.3499 43.3306C75.309 43.4304 74.3423 43.9133 73.6374 44.6856C72.9324 45.458 72.5396 46.4647 72.5351 47.5103C72.5281 48.5598 72.9174 49.5733 73.6252 50.3481C74.333 51.123 75.3072 51.6023 76.353 51.69C76.4933 51.702 76.6296 51.743 76.7532 51.8105C76.8768 51.8781 76.9849 51.9706 77.0708 52.0823C77.1566 52.194 77.2182 52.3223 77.2517 52.4591C77.2851 52.5959 77.2897 52.7382 77.2651 52.8769C76.7667 55.6581 75.8796 58.3555 74.63 60.8897C74.5115 61.1316 74.3017 61.3166 74.0468 61.4038C73.7919 61.491 73.5128 61.4735 73.2709 61.3549C73.029 61.2364 72.844 61.0266 72.7568 60.7717C72.6695 60.5168 72.6871 60.2377 72.8057 59.9958C73.821 57.9341 74.5797 55.7557 75.0648 53.5093C73.7526 53.145 72.5958 52.3608 71.7717 51.2766C70.9475 50.1925 70.5012 48.8681 70.5012 47.5063C70.5012 46.1444 70.9475 44.8201 71.7717 43.7359C72.5958 42.6517 73.7526 41.8675 75.0648 41.5032C73.91 36.2232 71.2649 31.3852 67.4433 27.5631C63.6218 23.741 58.7842 21.0953 53.5043 19.9397C53.14 21.2519 52.3558 22.4087 51.2716 23.2329C50.1875 24.057 48.8631 24.5033 47.5013 24.5033C46.1394 24.5033 44.8151 24.057 43.7309 23.2329C42.6468 22.4087 41.8625 21.2519 41.4982 19.9397C36.2171 21.0949 31.3782 23.741 27.5559 27.5638C23.7335 31.3867 21.0882 36.226 19.9337 41.5073C21.2459 41.8716 22.4027 42.6558 23.2268 43.74C24.051 44.8241 24.4973 46.1485 24.4973 47.5103C24.4973 48.8722 24.051 50.1965 23.2268 51.2807C22.4027 52.3648 21.2459 53.1491 19.9337 53.5134C21.0883 58.7949 23.734 63.6344 27.5567 67.4573C31.3795 71.2802 36.2188 73.9261 41.5003 75.0809C41.8642 73.7683 42.6484 72.6111 43.7327 71.7865C44.817 70.962 46.1416 70.5155 47.5038 70.5155C48.866 70.5155 50.1906 70.962 51.2749 71.7865C52.3592 72.6111 53.1434 73.7683 53.5074 75.0809C56.297 74.4835 58.9774 73.4578 61.4533 72.0404C61.569 71.9706 61.6975 71.9246 61.8312 71.9052C61.9649 71.8858 62.1011 71.8933 62.2319 71.9273C62.3627 71.9613 62.4853 72.0211 62.5926 72.1032C62.7 72.1853 62.7898 72.2881 62.8568 72.4054C62.9238 72.5227 62.9667 72.6522 62.983 72.7864C62.9992 72.9205 62.9885 73.0565 62.9514 73.1864C62.9143 73.3164 62.8516 73.4376 62.767 73.5429C62.6824 73.6482 62.5776 73.7356 62.4587 73.7999C59.4865 75.5025 56.242 76.6776 52.8688 77.2732C52.8099 77.283 52.7502 77.2878 52.6905 77.2873Z" fill="#0B0B0B"/>
<path d="M47.5027 24.5045C45.9455 24.5139 44.442 23.9354 43.2929 22.8845C42.1437 21.8336 41.4334 20.3877 41.304 18.8359C41.2804 18.6483 41.2689 18.4594 41.2696 18.2703C41.2696 16.6172 41.9263 15.0318 43.0952 13.8629C44.2641 12.6939 45.8495 12.0372 47.5027 12.0372C49.1558 12.0372 50.7412 12.6939 51.9101 13.8629C53.0791 15.0318 53.7358 16.6172 53.7358 18.2703C53.7361 18.4706 53.7232 18.6707 53.6973 18.8693C53.562 20.4153 52.8495 21.8536 51.7015 22.8978C50.5536 23.9421 49.0545 24.5157 47.5027 24.5045V24.5045ZM47.5027 14.0653C46.3876 14.0666 45.3185 14.5102 44.53 15.2987C43.7415 16.0872 43.2979 17.1562 43.2966 18.2714C43.2969 18.3896 43.3044 18.5077 43.3189 18.6251C43.4039 19.673 43.8791 20.6509 44.6505 21.3653C45.422 22.0796 46.4334 22.4784 47.4848 22.4827C48.5362 22.4871 49.5509 22.0966 50.3282 21.3887C51.1055 20.6807 51.5888 19.7067 51.6824 18.6595C51.6992 18.5308 51.708 18.4012 51.7088 18.2714C51.7077 17.1561 51.2642 16.0868 50.4757 15.298C49.6872 14.5093 48.618 14.0656 47.5027 14.0643V14.0653Z" fill="#0B0B0B"/>
<path d="M47.5026 82.9832C45.85 82.9816 44.2655 82.3244 43.0969 81.1558C41.9284 79.9872 41.2711 78.4028 41.2695 76.7501C41.2692 76.5498 41.2821 76.3497 41.308 76.1511C41.4549 74.6067 42.1734 73.1727 43.3226 72.1305C44.4718 71.0883 45.9689 70.5129 47.5204 70.5172C49.0718 70.5215 50.5657 71.1052 51.7091 72.1538C52.8525 73.2024 53.563 74.6403 53.7013 76.1856C53.7249 76.3728 53.7364 76.5614 53.7357 76.7501C53.7341 78.4028 53.0769 79.9872 51.9083 81.1558C50.7397 82.3244 49.1553 82.9816 47.5026 82.9832V82.9832ZM47.5026 72.544C46.4531 72.5373 45.4396 72.9268 44.6648 73.6348C43.8899 74.3428 43.4107 75.3171 43.3229 76.363C43.3062 76.4914 43.2974 76.6207 43.2966 76.7501C43.2966 77.8656 43.7397 78.9355 44.5285 79.7243C45.3173 80.5131 46.3871 80.9562 47.5026 80.9562C48.6182 80.9562 49.688 80.5131 50.4768 79.7243C51.2656 78.9355 51.7087 77.8656 51.7087 76.7501C51.7084 76.6322 51.7009 76.5144 51.6864 76.3974C51.6045 75.3455 51.1276 74.3636 50.3516 73.6488C49.5755 72.934 48.5577 72.5393 47.5026 72.544V72.544Z" fill="#0B0B0B"/>
<path d="M76.741 53.7433C76.5377 53.7434 76.3345 53.7305 76.1329 53.7048C74.5948 53.5494 73.1696 52.8271 72.1349 51.6785C71.1002 50.5299 70.53 49.0373 70.5354 47.4914C70.5409 45.9455 71.1215 44.457 72.1643 43.3157C73.2071 42.1744 74.6373 41.4622 76.1764 41.3176C76.3636 41.2933 76.5522 41.2815 76.741 41.2821C78.3941 41.2821 79.9795 41.9388 81.1484 43.1078C82.3174 44.2767 82.9741 45.8621 82.9741 47.5152C82.9741 49.1684 82.3174 50.7538 81.1484 51.9227C79.9795 53.0916 78.3941 53.7483 76.741 53.7483V53.7433ZM76.741 43.3041C76.6264 43.3042 76.512 43.3117 76.3984 43.3264C75.3491 43.4175 74.3715 43.8968 73.657 44.6706C72.9424 45.4444 72.5423 46.4569 72.5349 47.5102C72.5279 48.5596 72.9172 49.5731 73.625 50.348C74.3328 51.1229 75.307 51.6021 76.3528 51.6899C76.4815 51.707 76.6111 51.7158 76.741 51.7162C77.8565 51.7162 78.9263 51.2731 79.7151 50.4843C80.5039 49.6955 80.9471 48.6257 80.9471 47.5102C80.9471 46.3946 80.5039 45.3248 79.7151 44.536C78.9263 43.7472 77.8565 43.3041 76.741 43.3041V43.3041Z" fill="#0B0B0B"/>
<path d="M18.2617 53.7433C16.6085 53.7433 15.0231 53.0866 13.8542 51.9177C12.6853 50.7487 12.0286 49.1633 12.0286 47.5102C12.0286 45.8571 12.6853 44.2717 13.8542 43.1027C15.0231 41.9338 16.6085 41.2771 18.2617 41.2771C18.465 41.2773 18.6681 41.2905 18.8698 41.3166C20.4131 41.4661 21.845 42.1863 22.8851 43.3363C23.9252 44.4862 24.4985 45.983 24.4928 47.5335C24.4871 49.084 23.9028 50.5766 22.8542 51.7188C21.8057 52.8611 20.3685 53.5707 18.8242 53.7088C18.6376 53.7327 18.4497 53.7442 18.2617 53.7433V53.7433ZM18.2617 43.3041C17.7093 43.3041 17.1624 43.4129 16.6521 43.6243C16.1418 43.8357 15.6781 44.1455 15.2875 44.5361C14.897 44.9266 14.5871 45.3903 14.3758 45.9006C14.1644 46.4109 14.0556 46.9578 14.0556 47.5102C14.0556 48.0625 14.1644 48.6095 14.3758 49.1198C14.5871 49.6301 14.897 50.0938 15.2875 50.4843C15.6781 50.8749 16.1418 51.1847 16.6521 51.3961C17.1624 51.6075 17.7093 51.7163 18.2617 51.7163C18.3762 51.7165 18.4906 51.7094 18.6042 51.695C19.6524 51.6115 20.631 51.1376 21.3464 50.3671C22.0619 49.5966 22.462 48.5856 22.4678 47.5342C22.4735 46.4828 22.0844 45.4675 21.3774 44.6892C20.6704 43.911 19.697 43.4264 18.6498 43.3315C18.5212 43.3141 18.3915 43.3049 18.2617 43.3041V43.3041Z" fill="#0B0B0B"/>
<path d="M47.5003 67.7805C43.4912 67.7805 39.5721 66.5917 36.2387 64.3644C32.9053 62.1371 30.3072 58.9713 28.773 55.2674C27.2388 51.5635 26.8373 47.4878 27.6195 43.5557C28.4016 39.6237 30.3322 36.0119 33.167 33.177C36.0019 30.3422 39.6137 28.4116 43.5457 27.6295C47.4778 26.8474 51.5534 27.2488 55.2574 28.783C58.9613 30.3172 62.127 32.9153 64.3544 36.2487C66.5817 39.5821 67.7705 43.5012 67.7705 47.5103C67.7644 52.8844 65.6268 58.0366 61.8267 61.8367C58.0266 65.6368 52.8744 67.7744 47.5003 67.7805V67.7805ZM47.5003 29.267C43.8921 29.267 40.3649 30.337 37.3649 32.3416C34.3648 34.3462 32.0265 37.1954 30.6457 40.5289C29.2649 43.8624 28.9036 47.5305 29.6076 51.0693C30.3115 54.6082 32.049 57.8588 34.6003 60.4102C37.1517 62.9616 40.4023 64.6991 43.9412 65.403C47.48 66.1069 51.1481 65.7456 54.4816 64.3648C57.8152 62.984 60.6644 60.6458 62.669 57.6457C64.6736 54.6456 65.7435 51.1184 65.7435 47.5103C65.7379 42.6736 63.814 38.0366 60.394 34.6166C56.9739 31.1965 52.3369 29.2727 47.5003 29.267V29.267Z" fill="#0B0B0B"/>
<path d="M47.5032 67.7805C41.9107 67.7805 37.5303 58.8768 37.5303 47.5103C37.5303 36.1437 41.9107 27.24 47.5032 27.24C53.0958 27.24 57.4762 36.1437 57.4762 47.5103C57.4762 58.8768 53.0958 67.7805 47.5032 67.7805ZM47.5032 29.267C43.1958 29.267 39.5573 37.6214 39.5573 47.5103C39.5573 57.3991 43.1958 65.7535 47.5032 65.7535C51.8107 65.7535 55.4492 57.3991 55.4492 47.5103C55.4492 37.6214 51.8107 29.267 47.5032 29.267Z" fill="#0B0B0B"/>
<path d="M47.5025 67.7805C47.2337 67.7805 46.9759 67.6738 46.7859 67.4837C46.5958 67.2936 46.489 67.0358 46.489 66.767V28.2535C46.489 27.9847 46.5958 27.7269 46.7859 27.5368C46.9759 27.3468 47.2337 27.24 47.5025 27.24C47.7713 27.24 48.0291 27.3468 48.2192 27.5368C48.4093 27.7269 48.5161 27.9847 48.5161 28.2535V66.767C48.5161 67.0358 48.4093 67.2936 48.2192 67.4837C48.0291 67.6738 47.7713 67.7805 47.5025 67.7805Z" fill="#0B0B0B"/>
<path d="M66.757 48.5237H28.2435C27.9747 48.5237 27.7169 48.417 27.5268 48.2269C27.3368 48.0368 27.23 47.779 27.23 47.5102C27.23 47.2414 27.3368 46.9836 27.5268 46.7936C27.7169 46.6035 27.9747 46.4967 28.2435 46.4967H66.757C67.0258 46.4967 67.2836 46.6035 67.4737 46.7936C67.6637 46.9836 67.7705 47.2414 67.7705 47.5102C67.7705 47.779 67.6637 48.0368 67.4737 48.2269C67.2836 48.417 67.0258 48.5237 66.757 48.5237Z" fill="#0B0B0B"/>
<path d="M64.4796 39.4194H30.534C30.2652 39.4194 30.0074 39.3126 29.8174 39.1225C29.6273 38.9324 29.5205 38.6746 29.5205 38.4058C29.5205 38.137 29.6273 37.8793 29.8174 37.6892C30.0074 37.4991 30.2652 37.3923 30.534 37.3923H64.4796C64.7484 37.3923 65.0062 37.4991 65.1963 37.6892C65.3863 37.8793 65.4931 38.137 65.4931 38.4058C65.4931 38.6746 65.3863 38.9324 65.1963 39.1225C65.0062 39.3126 64.7484 39.4194 64.4796 39.4194Z" fill="#0B0B0B"/>
<path d="M64.4796 57.628H30.534C30.2652 57.628 30.0074 57.5212 29.8174 57.3311C29.6273 57.1411 29.5205 56.8833 29.5205 56.6145C29.5205 56.3457 29.6273 56.0879 29.8174 55.8978C30.0074 55.7077 30.2652 55.601 30.534 55.601H64.4796C64.7484 55.601 65.0062 55.7077 65.1963 55.8978C65.3863 56.0879 65.4931 56.3457 65.4931 56.6145C65.4931 56.8833 65.3863 57.1411 65.1963 57.3311C65.0062 57.5212 64.7484 57.628 64.4796 57.628Z" fill="#0B0B0B"/>
</g>
<defs>
<clipPath id="clip0">
<rect width="75" height="75" fill="white" transform="translate(10 10)"/>
</clipPath>
</defs>
</svg>
